<svg xmlns="http://www.w3.org/2000/svg" xmlns:xlink="http://www.w3.org/1999/xlink" width="1024" height="1024" viewBox="0 0 1024 1024" fill="none"><path d="M0 0L0 1024L1024 1024L1024 0L0 0Z"   fill="#FFFFFF" fill-opacity="0"></path><g opacity="0.05"><path d="M160.4 303.51C301.62 273.87 385.05 308.39 447.1 248.05C509.15 187.71 524.62 197.61 575.59 201.6C626.56 205.59 685.63 162 705.47 149C725.31 136 904.53 51.69 950.35 303.51C957.59 412.38 963.61 530.51 912.91 575.24C862.21 619.97 913.84 660.15 950.35 664.62C986.86 669.09 933.28 745.53 849 778.9C792.88 804.06 430.19 876.18 213 802C108.11 757.12 84.47 614.86 76.8 581.77C69.12 548.67 19.18 333.15 160.4 303.51Z"   fill="#47B0F1" ></path></g><g opacity="0.1"><path d="M116 322C116.002 318.226 113.012 315.129 109.24 315L106 315L106 314.85C102.508 314.137 99.9993 311.065 100 307.5L100 306.5C100 302.361 103.361 299 107.5 299L186.5 299C190.639 299 194 302.361 194 306.5L194 307.5C194 311.639 190.639 315 186.5 315L155 315C151.226 314.998 148.129 317.988 148 321.76L148 322C147.998 325.774 150.988 328.871 154.76 329L158 329L158 329.15C161.49 329.866 163.997 332.937 164 336.5L164 337.5C164 341.639 160.639 345 156.5 345L77.5 345C73.3606 345 70 341.639 70 337.5L70 336.5C70 332.361 73.3606 329 77.5 329L109 329C112.774 329.002 115.871 326.012 116 322.24L116 322Z"   fill="url(#linear_fill_lHp2mZ8OzDRHNYHJr2U2D)" ></path></g><g opacity="0.1"><path d="M855 145C851.226 144.998 848.129 147.988 848 151.76L848 152C847.998 155.774 850.988 158.871 854.76 159L858 159L858 159.15C861.49 159.866 863.997 162.937 864 166.5L864 167.5C864 171.639 860.639 175 856.5 175L777.5 175C773.361 175 770 171.639 770 167.5L770 166.5C770 162.361 773.361 159 777.5 159L809 159C812.774 159.002 815.871 156.012 816 152.24L816 152C816.002 148.226 813.012 145.129 809.24 145L806 145L806 144.85C802.508 144.137 799.999 141.065 800 137.5L800 136.5C800 132.361 803.361 129 807.5 129L886.5 129C890.639 129 894 132.361 894 136.5L894 137.5C894 141.639 890.639 145 886.5 145L855 145Z"   fill="url(#linear_fill_-O7KUtl20WOkhd07Z3j5O)" ></path></g><path d="M847.45 857.75C847.818 859.813 848.002 861.904 848 864C848 915.91 735.18 958 596 958C471.35 958 367.83 924.24 347.59 879.89C180.2 867.13 62 835.72 62 799C62 751 264.37 712 514.52 712C645.62 712 763.78 722.79 846.3 740C927.06 740.65 992 765 992 795C992 819.23 949.55 839.8 890.61 847.13C877.61 850.88 863.2 854.43 847.45 857.75Z"   fill="url(#linear_fill_3DMaLAQKuD4zXTdE5fYy4)" ></path><path d="M686.61 226.65L686.61 226.55C681.28 211.55 663.91 204.44 649.17 206.62C660.1 199.83 678.17 198.02 686.61 208.44L686.61 208.53C695.07 198.2 713.2 199.92 724.04 206.71C709.32 204.63 691.95 211.71 686.61 226.64L686.61 226.65Z"   fill="url(#linear_fill_9vsLlC5EomRN7ie_f5UI7)" ></path><path d="M770 214.11L770 214C766.3 203.58 754.27 198.69 744.06 200.19C751.63 195.48 764.13 194.19 770 201.45L770 201.51C775.87 194.35 788.44 195.51 796 200.25C785.79 198.81 773.76 203.71 770 214.07L770 214.11Z"   fill="url(#linear_fill_FUezjjw0u4y_j8GYAZ4lk)" ></path><path d="M735.24 179.63L735.24 179.57C731.54 169.14 719.51 164.25 709.24 165.75C716.82 161.04 729.32 159.75 735.24 167.01L735.24 167.07C741.11 159.92 753.67 161.07 761.24 165.82C751.02 164.37 739 169.27 735.24 179.63Z"   fill="url(#linear_fill_OFnUle0eWC-R9jTnSIueB)" ></path><path d="M840.72 220.07L840.72 220.07C838.16 212.84 829.82 209.44 822.72 210.49C827.97 207.23 836.63 206.35 840.72 211.36L840.72 211.36C844.8 206.36 853.5 207.23 858.72 210.49C851.63 209.49 843.29 212.89 840.72 220.07Z"   fill="url(#linear_fill_VM-1l7FgpNOFw94ZaMTcr)" ></path><path d="M20.37 715C33.21 730.647 40 743.187 40.74 752.62C41.85 766.76 52.85 782.78 80.4 773.62C98.7667 767.507 111.38 777.733 118.24 804.3C138.947 831.74 175.323 842.703 227.37 837.19C227.37 837.19 227.37 837.19 217.44 765.19C201.493 758.89 189.313 755 180.9 753.52C180.9 753.52 180.9 753.52 168.54 726C168.54 715.447 160.9 707.743 145.62 702.89C145.62 702.89 145.62 702.89 126.42 679.75C116.267 664.797 104.153 662.66 90.08 673.34C90.08 673.34 90.08 673.34 54.17 676.4C21.5033 661.733 6.83667 668.947 10.17 698.04C12.0567 707.073 15.4567 712.727 20.37 715Z"   fill="url(#linear_fill_V4kuz1OCniay5X0mRJB3d)" ></path><path d="M145.68 753.55L182.68 778.25C182.47 778.01 182.34 777.84 182.34 777.84C182.34 777.84 184.25 763.56 182.56 756.37C184.23 758.37 185.35 773.37 184.86 779.71L215.41 800.1L211.52 804L180 781.68C171.48 786.68 159.79 787.47 154.14 786.94C164.587 785.987 172.22 783.59 177.04 779.75C177.809 780.378 178.648 780.915 179.54 781.35L90.7 718.45C90.9 718.68 91.08 718.9 91.26 719.14C78.1 721 66.2867 720.207 55.82 716.76C56.66 715.09 70.57 721.59 88.93 717.21L52.64 691.51L100.91 723.73C98.45 710.81 95.51 700.343 92.09 692.33C87.02 680.46 102.68 712.12 102.89 725.05L143.13 751.91L143.02 751.75C144.127 734.463 143.68 722.397 141.68 715.55C144.37 719.14 147.24 744.92 145.68 753.55Z"   fill="url(#linear_fill_ugm3Rh4vIu1mjSeYzSwVW)" ></path><path d="M94 768.36C104.54 768.667 118.263 762.577 135.17 750.09C135.859 750.879 136.601 751.621 137.39 752.31C121.39 764.93 104.24 769.9 94 768.36Z"   fill="url(#linear_fill_8mnZxcAzLtfseinNQVP_E)" ></path><path d="M124.14 623.81C112.753 625.997 101.23 620.487 89.57 607.28C57.4033 585.387 42.4767 590.89 44.79 623.79C51 647.36 55 663.12 53 677.56C51 692 57.31 719.31 89.56 730.56C111.06 738.033 117.1 748.63 107.68 762.35C102.953 783.43 129.027 798.557 185.9 807.73C271.23 821.49 250.9 789.86 228.96 755.57C213.09 739.69 210.96 729.99 210.96 717.85C210.96 705.71 222.57 685.85 189.2 677.61C174.533 674.277 166.847 659.61 166.14 633.61C163.84 620.55 149.84 617.283 124.14 623.81Z"   fill="url(#linear_fill_FqjNMvINEZHfd4gt1lHcW)" ></path><path d="M112.72 641.04C115.06 648.31 119.53 656.98 112.11 671.97L142.11 710.15L142.3 709.88C148.3 701.4 151.3 690.247 151.3 676.42C152.68 680.72 152.71 700.42 144.14 712.69L170.75 746.51C172.43 743.9 176.63 736.56 176.63 728.36C177.52 734.01 177.63 741.58 172.74 749.04L212 799L205.77 799L167.77 748.45C149.39 756.29 139.07 753.01 133.96 750.7C143.96 753.14 154.533 751.473 165.68 745.7L136.81 707.26C136.97 707.55 137.13 707.86 137.31 708.17C118.1 714.9 98.16 715.7 88.95 710.91C98.81 714.63 114.477 712.777 135.95 705.35L135.52 705.5L103.35 662.66C103.42 662.84 103.48 663.01 103.53 663.18C89.4033 664.047 78.1233 659.55 69.69 649.69C71.03 648.39 80.04 661.5 101.83 660.69L74.94 624.74L110.38 669.8L110.45 669.63C114.284 660.709 115.109 650.782 112.8 641.35L112.72 641.04L112.72 641.04Z" fill-rule="evenodd"  fill="url(#linear_fill_0qSJDxEtyIGFePMZLPZgA)" ></path><path d="M199.2 608.75C211.62 591.49 222.737 593.243 232.55 614.01C237.31 631.95 229.8 643.35 254.37 651.51C270.757 656.95 273.237 668.333 261.81 685.66C257.043 696.56 260.57 703.53 272.39 706.57C272.39 706.57 272.39 706.57 268.12 742.79C263.04 754.363 263.04 762.097 268.12 765.99C275.75 771.82 290.4 789.34 272.39 823.38C254.38 857.42 211.93 830.98 205.56 814.98C199.19 798.98 211.93 776.92 205.56 765.98C199.19 755.04 162.1 751.28 172 718.47C180.25 705.04 191.74 701.16 180.21 678.31C168.68 655.46 165.75 664.63 180.21 642.12C186.53 635.653 192.86 624.53 199.2 608.75Z"   fill="url(#linear_fill_dJ6zmJk-GCeZzju0Zg3uT)" ></path><path d="M237.42 745.21C237.414 745.147 237.414 745.083 237.42 745.02C250.433 733.58 258.65 724.73 262.07 718.47C261.43 722.91 245.22 743.17 237.97 748.17L246.68 791.81L246.68 791.28C246.68 791.28 258.12 782.53 262.02 776.28C261.77 778.9 252.02 790.28 247.14 794.42L254.32 830.42L248.9 830.42L242.39 792.33C232.8 789.87 224 782.14 220.39 777.77C228.45 784.483 235.543 788.187 241.67 788.88C241.769 789.864 241.981 790.834 242.3 791.77L224 684.47C223.99 684.765 223.96 685.059 223.91 685.35C213.29 677.35 205.5 668.437 200.54 658.61C202.31 658.03 207.54 672.46 223.64 682.34L216.11 638.51L227.46 695.42C234.847 684.56 240.18 675.083 243.46 666.99C248.27 654.99 236.96 688.47 227.96 697.76L237.42 745.21Z"   fill="url(#linear_fill_5BDQNnkHtASH4BksLRm3d)" ></path><path d="M191 722.08C198.227 729.747 212.227 735.143 233 738.27C232.93 739.315 232.93 740.365 233 741.41C212.8 739 197.16 730.42 191 722.08Z"   fill="url(#linear_fill_DskSPuOPjTjMrpXqkePZA)" ></path><path d="M938.4 787.52C941.3 765.307 933.833 753.343 916 751.63C940.14 749.33 956.12 764.02 956.38 787.52C951.38 787.693 945.387 787.693 938.4 787.52Z"   fill="url(#linear_fill_EGaoY6raq5l56oBxMt8yR)" ></path><path d="M950.12 787.65C954.833 765.217 949.037 748.667 932.73 738C953.55 744.57 968.51 754.44 973.37 787.65C965.627 788.124 957.863 788.124 950.12 787.65Z"   fill="url(#linear_fill_8_teq6EHpgNwY-gNesd1E)" ></path><path d="M977.07 788C974.977 766.7 982.62 754.497 1000 751.39C983.89 750.99 965.91 749.91 953 788C963.933 787.647 971.957 787.647 977.07 788Z"   fill="url(#linear_fill_Yn_ixVsj_P2aRxEOtZnfc)" ></path><path d="M927.41 802C944.26 802 957 802.41 957 786.61C957 770.81 943.34 758 926.5 758C909.66 758 896 770.81 896 786.61C896 802.41 910.57 802 927.41 802Z"   fill="url(#linear_fill_IzoKtJfN6qwSVPkCWb_E3)" ></path><path d="M960.57 802C971.06 802 979 802.25 979 792.56C979 782.87 970.49 775 960 775C949.51 775 941 782.86 941 792.56C941 802.26 950.07 802 960.57 802Z"   fill="url(#linear_fill_biX-2mkZ4HCxSOlrQZ97j)" ></path><path d="M737.63 773.11L725 785.74C716.019 794.717 701.461 794.717 692.48 785.74L613.28 706.54C608.965 702.224 606.543 696.369 606.547 690.266C606.551 684.163 608.98 678.311 613.3 674L625.91 661.39C630.223 657.076 636.074 654.652 642.175 654.652C648.276 654.652 654.127 657.076 658.44 661.39L737.63 740.59C746.607 749.571 746.607 764.129 737.63 773.11Z"   fill="url(#linear_fill_1f2MoDF48YHSpBy_8Wsih)" ></path><path d="M523 739C424.207 739 344 658.793 344 560C344 461.207 424.207 381 523 381C621.793 381 702 461.207 702 560C702 658.793 621.793 739 523 739ZM523 695C448.491 695 388 634.509 388 560C388 485.491 448.491 425 523 425C597.509 425 658 485.491 658 560C658 634.509 597.509 695 523 695Z" fill-rule="evenodd"  fill="url(#linear_fill_iL14RRnWkdnTMeqMSrH2q)" ></path><path d="M767 462.29L770.6 461.85C777.138 460.73 783.761 463.296 787.838 468.528C791.915 473.76 792.784 480.81 790.1 486.875C787.416 492.941 781.614 497.039 775 497.54L771.4 497.98C762.883 499.011 754.802 493.958 752 485.85L744.45 486.78L743.57 479.64L750.77 478.75L757.96 477.87L758.4 481.44C758.71 484.314 760.175 486.939 762.458 488.712C764.742 490.485 767.649 491.253 770.51 490.84L774.11 490.39C778.136 490.168 781.703 487.722 783.361 484.047C785.019 480.371 784.491 476.078 781.992 472.913C779.493 469.749 775.44 468.24 771.48 469L767.88 469.44L767 462.29Z"   fill="url(#linear_fill_UCXtLOQyxgkE9e4YSiJ3F)" ></path><path d="M740 480.08L740.88 487.22L733.68 488.11L732.81 480.96L740 480.08Z"   fill="url(#linear_fill_610gHhZRVsCtHrNaaPtTQ)" ></path><path d="M722.7 444.59L718.8 448.49L715.12 444.81L718.83 441.1L718.81 441.12L722.53 437.41L724.37 439.25C725.828 440.747 727.831 441.587 729.921 441.577C732.01 441.568 734.006 440.71 735.45 439.2L737.31 437.34C739.528 435.431 740.491 432.442 739.805 429.597C739.118 426.753 736.897 424.532 734.053 423.845C731.208 423.159 728.219 424.122 726.31 426.34L724.46 428.19L720.78 424.52L722.64 422.66C725.841 419.035 730.788 417.487 735.484 418.639C740.18 419.792 743.849 423.456 745.007 428.151C746.165 432.846 744.621 437.795 741 441L739.15 442.85C734.76 447.231 727.909 447.955 722.7 444.59Z"   fill="url(#linear_fill_f8WE6YDTCL6Z-ABGa0qTz)" ></path><path d="M713.25 446.69L716.92 450.37L713.21 454.08L709.53 450.4L713.25 446.69Z"   fill="url(#linear_fill_rAkEZe1Wj_FsuM6KFGRFa)" ></path><g opacity="0.4"><path d="M456.08 829.5C478.41 836.5 469.52 840.68 462.08 844.79C448.44 852.33 454.57 858.93 461.5 865C471.77 874 548.43 895.63 631.55 877.22C709.06 860.06 697.38 829.22 677.46 815.22C661.43 804 591.5 778.49 511.54 784C463.42 787.3 442.76 795.56 438.75 801.93C432.11 812.47 431.21 821.71 456.08 829.5Z"   fill="url(#linear_fill_f_3q-7b19YkXtpYTRRzfa)" ></path></g><path d="M507.22 830.51C503.67 833.77 501.15 834.51 500.42 837.25C499.69 839.99 502.34 846.25 505.61 847.65C509.76 849.37 517.11 851.88 519.17 852.65C521.23 853.42 535.47 858.21 539.3 855.31C543.13 852.41 539.3 845.81 530.94 841.31C522.58 836.81 510.11 831.31 510.11 831.31L507.22 830.51Z"   fill="#333333" ></path><path d="M585.31 775.68C585.31 780.49 584.11 782.85 585.6 785.24C587.09 787.63 593.52 790 596.75 788.53C600.84 786.67 607.69 783.01 609.64 782.02C611.59 781.03 624.82 773.89 625.31 769.11C625.8 764.33 618.31 762.65 609.37 765.67C600.43 768.69 587.86 774.09 587.86 774.09L585.31 775.68Z"   fill="#333333" ></path><path d="M598 770.2C598.77 725.3 591 691.39 581 685.08C568.59 670.76 546.14 664.82 546.14 664.82L505 685.08C505 685.08 542.54 701.31 566.21 717.57C568.07 733.49 569.06 736.18 573.44 748.67C578.9 764.19 584.1 770.57 585.64 775C587.18 779.43 598.85 775.87 598 770.2Z"   fill="url(#linear_fill_rNRC6M9EKWJwPkv5RF7D0)" ></path><path d="M537 694.3C538.43 724.67 535.34 737.79 533.26 761C531.18 784.21 520.7 822.11 518 835.55C516.19 844.69 501.34 839.04 502.11 831C502.88 822.96 503.28 775 501.56 761.06C499.84 747.12 497 676.54 497 676.54L534.77 671.83L537 694.3Z"   fill="url(#linear_fill_rEVGYktKZ3B-9q47h24w4)" ></path><path d="M524.14 557.76C523.965 558.249 523.733 558.715 523.45 559.15C521.96 561.32 520.33 564.15 518.02 565.78L518.02 571.86L506 572L506 564.86C505.009 564.047 504.169 563.065 503.52 561.96C502.643 560.633 501.912 559.215 501.34 557.73L501.58 557.73C494.58 558.22 496.9 548.57 499.87 550.09C499.87 549.77 499.87 549.44 499.87 549.09C500.151 546.405 501.242 543.869 503 541.82C505.434 539.017 509.107 537.614 512.79 538.08C516.345 538.427 519.632 540.119 521.98 542.81C522.689 543.588 523.288 544.459 523.76 545.4L523.85 545.58L523.75 545.09C524.87 545.41 525.35 547.39 525.39 549.8L525.39 550C528.1 549.26 530.04 557.54 524.14 557.76Z" fill-rule="evenodd"  fill="#EBB0B0" ></path><path d="M499.49 529.77C495.963 532.74 493.687 536.934 493.12 541.51C492.38 547.05 495.29 549.8 497.71 554C499.95 552.61 500.49 549.41 502.07 547.33C504.279 544.793 507.044 542.801 510.15 541.51C516.85 540.51 520.06 540.51 523.08 546.51L524.61 551C528.74 547.08 530.24 534 522.42 530.66C521.54 529.66 519.68 529.34 517.18 529.3C515.37 529.3 515.18 529.93 514.24 529.77C513.3 529.61 511.95 527.46 508.42 527.03C506.51 526.77 500.74 528.17 499.49 529.77Z"   fill="#131322" ></path><path d="M533.53 483.33C532.02 479.237 531.386 474.873 531.67 470.52C532.78 467.72 533.45 468.66 533.29 470.27C534.29 469.01 538.23 463.07 545.88 470.36C547.26 474.17 547.88 482.27 543 486.83C539.853 489.023 536.697 487.857 533.53 483.33Z"   fill="#EFBA9E" ></path><path d="M515 575.39C515 575.39 534 549.92 533.21 485.73C534.77 475.73 543.04 476.94 547.52 479.06C547.52 479.06 563 575 548 589L515 575.39Z"   fill="url(#linear_fill_PWXNFzbyrsEV0OAJDQnDC)" ></path><path d="M505.19 567C511.777 570.333 516.06 570.437 518.04 567.31C520.83 567.41 539.04 565.68 548.04 581.59C553.75 598.76 558.04 640.16 553.04 660.94C548.04 684 521.87 686.51 496.04 684.22C485.37 671.43 469.33 617.55 475.04 597C479.193 582.56 489.243 572.56 505.19 567Z"   fill="url(#linear_fill_3rmBRxkhRhHegywGEAd0X)" ></path><path d="M545 617L541 615.2C538.481 614.089 536.733 611.733 536.4 609L532.48 576.92C532.314 575.313 533.45 573.863 535.05 573.64C535.335 573.6 535.625 573.6 535.91 573.64C538.234 574.039 540.02 575.918 540.3 578.26L545 617Z"   fill="url(#linear_fill_2z_Eedvz7PUMwDoVAKz1I)" ></path><path d="M527.86 597.55C528.827 593.295 530.674 589.289 533.28 585.79C535.74 584.05 535.79 585.2 534.78 586.46C536.26 585.93 542.84 583.12 545.29 593.39C544.37 597.39 540.46 604.46 533.9 605.64C530.073 605.76 528.06 603.063 527.86 597.55Z"   fill="#EFBA9E" ></path><path d="M488.22 589.3C488.22 589.3 505 594 502.87 630.74L529 596.38C539 599.46 535.6 608.79 534 615.02L517 652.24C510.5 663.46 500.41 660.76 496 659.92C491.59 659.08 486.13 653.92 484.43 649.7C476.43 638.03 471.84 625.54 471.95 604.7C471.92 604.74 472.06 584.55 488.22 589.3Z"   fill="url(#linear_fill_CGG39NRe88ifcZZdERkpa)" ></path><path d="M553.41 543L541.87 562.16L530.74 569C529.701 571.28 529.936 573.938 531.36 576C533.22 578.27 535.9 578.47 536.31 578.68C540.163 576.893 543.94 575.04 547.64 573.12L568.46 572.91L553.41 543Z"   fill="url(#linear_fill_owNOJdd1cpFCcW9JOY6Yq)" ></path><path d="M553.41 543C549.91 544.85 550.32 554.54 553.83 561.54C557.33 568.35 564.96 574.73 568.46 572.88C571.96 571.03 571.14 561.96 568.46 555.77C564.96 548.15 556.92 541.14 553.41 543Z"   fill="#98D6FA" ></path><path d="M555.57 556.96C557.52 555.922 559.941 556.661 560.98 558.61L560.98 558.61C562.018 560.56 561.279 562.981 559.33 564.02L552.27 567.78C551.333 568.278 550.236 568.382 549.221 568.071C548.206 567.76 547.357 567.058 546.86 566.12L546.86 566.12C545.822 564.17 546.561 561.749 548.51 560.71L555.57 556.96Z"   fill="#FFFFFF" ></path><path d="M564.74 545.38L569.26 536.87L571.52 540.91L582.12 531.25L570.28 544.24L569.1 540.99L564.74 545.38L564.74 545.38Z"   fill="#98D6FA" ></path><path d="M572.26 559.11L580.84 554.74L580.38 559.35L594.6 557.52L577.45 561.36L578.35 558.02L572.26 559.11L572.26 559.11Z"   fill="#98D6FA" ></path><defs><linearGradient id="linear_fill_lHp2mZ8OzDRHNYHJr2U2D" x1="-26039.859375" y1="44189.25" x2="-25960.5" y2="44192.96875" gradientUnits="userSpaceOnUse"><stop offset="0" stop-color="#98D6FA"  /><stop offset="1" stop-color="#47B0F1"  /></linearGradient><linearGradient id="linear_fill_-O7KUtl20WOkhd07Z3j5O" x1="-25339.859375" y1="44019.25" x2="-25260.5" y2="44022.96875" gradientUnits="userSpaceOnUse"><stop offset="0" stop-color="#98D6FA"  /><stop offset="1" stop-color="#47B0F1"  /></linearGradient><linearGradient id="linear_fill_3DMaLAQKuD4zXTdE5fYy4" x1="-198530.234375" y1="230978.65625" x2="-197600.234375" y2="230978.65625" gradientUnits="userSpaceOnUse"><stop offset="0" stop-color="#FFF5DE"  /><stop offset="1" stop-color="#FBD2AC"  /></linearGradient><linearGradient id="linear_fill_9vsLlC5EomRN7ie_f5UI7" x1="-14947.7099609375" y1="25059.400390625" x2="-14900.5419921875" y2="25060.896484375" gradientUnits="userSpaceOnUse"><stop offset="0" stop-color="#98D6FA"  /><stop offset="1" stop-color="#47B0F1"  /></linearGradient><linearGradient id="linear_fill_FUezjjw0u4y_j8GYAZ4lk" x1="-9937.560546875" y1="17739.150390625" x2="-9904.3505859375" y2="17740.189453125" gradientUnits="userSpaceOnUse"><stop offset="0" stop-color="#98D6FA"  /><stop offset="1" stop-color="#47B0F1"  /></linearGradient><linearGradient id="linear_fill_OFnUle0eWC-R9jTnSIueB" x1="-9972.349609375" y1="17704.669921875" x2="-9939.140625" y2="17705.70703125" gradientUnits="userSpaceOnUse"><stop offset="0" stop-color="#98D6FA"  /><stop offset="1" stop-color="#47B0F1"  /></linearGradient><linearGradient id="linear_fill_VM-1l7FgpNOFw94ZaMTcr" x1="-6453.900390625" y1="12685.029296875" x2="-6431.2392578125" y2="12685.75" gradientUnits="userSpaceOnUse"><stop offset="0" stop-color="#98D6FA"  /><stop offset="1" stop-color="#47B0F1"  /></linearGradient><linearGradient id="linear_fill_V4kuz1OCniay5X0mRJB3d" x1="-82335.6328125" y1="134235.078125" x2="-82160.6796875" y2="134254.21875" gradientUnits="userSpaceOnUse"><stop offset="0" stop-color="#98D6FA"  /><stop offset="1" stop-color="#47B0F1"  /></linearGradient><linearGradient id="linear_fill_ugm3Rh4vIu1mjSeYzSwVW" x1="116156.25" y1="138938.1875" x2="116169.046875" y2="138933.21875" gradientUnits="userSpaceOnUse"><stop offset="0.03" stop-color="#AFDEF9"  /><stop offset="1" stop-color="#7CC9F9"  /></linearGradient><linearGradient id="linear_fill_8mnZxcAzLtfseinNQVP_E" x1="31044.025390625" y1="23179.373046875" x2="31047.435546875" y2="23178.56640625" gradientUnits="userSpaceOnUse"><stop offset="0.03" stop-color="#AFDEF9"  /><stop offset="1" stop-color="#7CC9F9"  /></linearGradient><linearGradient id="linear_fill_FqjNMvINEZHfd4gt1lHcW" x1="-43094" y1="203666.3125" x2="-42984.06640625" y2="203715.171875" gradientUnits="userSpaceOnUse"><stop offset="0" stop-color="#98D6FA"  /><stop offset="1" stop-color="#47B0F1"  /></linearGradient><linearGradient id="linear_fill_0qSJDxEtyIGFePMZLPZgA" x1="75172.296875" y1="189912.96875" x2="75181.6484375" y2="189907.9375" gradientUnits="userSpaceOnUse"><stop offset="0.03" stop-color="#AFDEF9"  /><stop offset="1" stop-color="#7CC9F9"  /></linearGradient><linearGradient id="linear_fill_dJ6zmJk-GCeZzju0Zg3uT" x1="-23084.80078125" y1="228008.84375" x2="-23060.455078125" y2="228071.921875" gradientUnits="userSpaceOnUse"><stop offset="0" stop-color="#98D6FA"  /><stop offset="1" stop-color="#47B0F1"  /></linearGradient><linearGradient id="linear_fill_5BDQNnkHtASH4BksLRm3d" x1="-12600.669921875" y1="180488.25" x2="-12590.2080078125" y2="180483.265625" gradientUnits="userSpaceOnUse"><stop offset="0.03" stop-color="#AFDEF9"  /><stop offset="1" stop-color="#7CC9F9"  /></linearGradient><linearGradient id="linear_fill_DskSPuOPjTjMrpXqkePZA" x1="-8547.02734375" y1="18837.318359375" x2="-8539.8857421875" y2="18836.81640625" gradientUnits="userSpaceOnUse"><stop offset="0.03" stop-color="#AFDEF9"  /><stop offset="1" stop-color="#7CC9F9"  /></linearGradient><linearGradient id="linear_fill_EGaoY6raq5l56oBxMt8yR" x1="-7302.3701171875" y1="35558.2890625" x2="-7318.5224609375" y2="35589.3828125" gradientUnits="userSpaceOnUse"><stop offset="0" stop-color="#98D6FA"  /><stop offset="1" stop-color="#47B0F1"  /></linearGradient><linearGradient id="linear_fill_8_teq6EHpgNwY-gNesd1E" x1="-7341.85986328125" y1="48355.390625" x2="-7319.10205078125" y2="48376.1171875" gradientUnits="userSpaceOnUse"><stop offset="0" stop-color="#98D6FA"  /><stop offset="1" stop-color="#47B0F1"  /></linearGradient><linearGradient id="linear_fill_Yn_ixVsj_P2aRxEOtZnfc" x1="-8670.3798828125" y1="35986.78125" x2="-8630.47265625" y2="36000.86328125" gradientUnits="userSpaceOnUse"><stop offset="0" stop-color="#98D6FA"  /><stop offset="1" stop-color="#47B0F1"  /></linearGradient><linearGradient id="linear_fill_IzoKtJfN6qwSVPkCWb_E3" x1="-11733.5" y1="42784.41015625" x2="-11681.650390625" y2="42800.26953125" gradientUnits="userSpaceOnUse"><stop offset="0" stop-color="#98D6FA"  /><stop offset="1" stop-color="#47B0F1"  /></linearGradient><linearGradient id="linear_fill_biX-2mkZ4HCxSOlrQZ97j" x1="-6768.6201171875" y1="26960.580078125" x2="-6736.31982421875" y2="26970.080078125" gradientUnits="userSpaceOnUse"><stop offset="0" stop-color="#98D6FA"  /><stop offset="1" stop-color="#47B0F1"  /></linearGradient><linearGradient id="linear_fill_1f2MoDF48YHSpBy_8Wsih" x1="95477.6171875" y1="115485.875" x2="95488.46875" y2="115522.265625" gradientUnits="userSpaceOnUse"><stop offset="0" stop-color="#98D6FA"  /><stop offset="1" stop-color="#47B0F1"  /></linearGradient><linearGradient id="linear_fill_iL14RRnWkdnTMeqMSrH2q" x1="-75841.0625" y1="335018.6875" x2="-75468.7421875" y2="335222.75" gradientUnits="userSpaceOnUse"><stop offset="0" stop-color="#98D6FA"  /><stop offset="1" stop-color="#47B0F1"  /></linearGradient><linearGradient id="linear_fill_UCXtLOQyxgkE9e4YSiJ3F" x1="-43465.55859375" y1="417.53997802734375" x2="-43453.79296875" y2="438.05926513671875" gradientUnits="userSpaceOnUse"><stop offset="0" stop-color="#98D6FA"  /><stop offset="1" stop-color="#47B0F1"  /></linearGradient><linearGradient id="linear_fill_610gHhZRVsCtHrNaaPtTQ" x1="-6689.03271484375" y1="470.39459228515625" x2="-6687.0576171875" y2="474.9060974121094" gradientUnits="userSpaceOnUse"><stop offset="0" stop-color="#98D6FA"  /><stop offset="1" stop-color="#47B0F1"  /></linearGradient><linearGradient id="linear_fill_f8WE6YDTCL6Z-ABGa0qTz" x1="-25593.51953125" y1="21309.912109375" x2="-25584.7421875" y2="21322.1953125" gradientUnits="userSpaceOnUse"><stop offset="0" stop-color="#98D6FA"  /><stop offset="1" stop-color="#47B0F1"  /></linearGradient><linearGradient id="linear_fill_rAkEZe1Wj_FsuM6KFGRFa" x1="-5714.37890625" y1="5554.552734375" x2="-5712.2353515625" y2="5557.55615234375" gradientUnits="userSpaceOnUse"><stop offset="0" stop-color="#98D6FA"  /><stop offset="1" stop-color="#47B0F1"  /></linearGradient><linearGradient id="linear_fill_f_3q-7b19YkXtpYTRRzfa" x1="68845.0546875" y1="96718.3125" x2="69096.7578125" y2="96718.3125" gradientUnits="userSpaceOnUse"><stop offset="0" stop-color="#F5DDA7"  /><stop offset="1" stop-color="#FA9A41"  /></linearGradient><linearGradient id="linear_fill_rNRC6M9EKWJwPkv5RF7D0" x1="-18975.509765625" y1="106227.8828125" x2="-19062.01953125" y2="106268.8125" gradientUnits="userSpaceOnUse"><stop offset="0" stop-color="#1D181C"  /><stop offset="0.3" stop-color="#2C2422"  /><stop offset="0.5" stop-color="#42352C"  /><stop offset="0.7" stop-color="#57352C"  /><stop offset="1" stop-color="#923629"  /></linearGradient><linearGradient id="linear_fill_rEVGYktKZ3B-9q47h24w4" x1="-7717.5703125" y1="158646.421875" x2="-7720.3955078125" y2="158664.1875" gradientUnits="userSpaceOnUse"><stop offset="0" stop-color="#1D181C"  /><stop offset="0.3" stop-color="#2C2422"  /><stop offset="0.5" stop-color="#42352C"  /><stop offset="0.7" stop-color="#57352C"  /><stop offset="1" stop-color="#923629"  /></linearGradient><linearGradient id="linear_fill_PWXNFzbyrsEV0OAJDQnDC" x1="-7524.18017578125" y1="105320.796875" x2="-7563.72998046875" y2="105320.796875" gradientUnits="userSpaceOnUse"><stop offset="0" stop-color="#FFB859"  /><stop offset="1" stop-color="#F97B61"  /></linearGradient><linearGradient id="linear_fill_3rmBRxkhRhHegywGEAd0X" x1="-16519.1796875" y1="111455.34375" x2="-16599.765625" y2="111455.34375" gradientUnits="userSpaceOnUse"><stop offset="0" stop-color="#FFB859"  /><stop offset="1" stop-color="#F97B61"  /></linearGradient><linearGradient id="linear_fill_2z_Eedvz7PUMwDoVAKz1I" x1="-1739.81005859375" y1="42002.0703125" x2="-1738.681396484375" y2="42009.08984375" gradientUnits="userSpaceOnUse"><stop offset="0" stop-color="#98D6FA"  /><stop offset="1" stop-color="#47B0F1"  /></linearGradient><linearGradient id="linear_fill_CGG39NRe88ifcZZdERkpa" x1="-12781.830078125" y1="68928.875" x2="-12752.4267578125" y2="68934.625" gradientUnits="userSpaceOnUse"><stop offset="0" stop-color="#F97B61"  /><stop offset="1" stop-color="#FFB859"  /></linearGradient><linearGradient id="linear_fill_owNOJdd1cpFCcW9JOY6Yq" x1="-219.1300048828125" y1="-933.4100341796875" x2="-179.23565673828125" y2="-915.9415283203125" gradientUnits="userSpaceOnUse"><stop offset="0" stop-color="#98D6FA"  /><stop offset="1" stop-color="#47B0F1"  /></linearGradient></defs></svg>