<svg xmlns="http://www.w3.org/2000/svg" xmlns:xlink="http://www.w3.org/1999/xlink" width="1024" height="1024" viewBox="0 0 1024 1024" fill="none"><path d="M0 0L0 1024L1024 1024L1024 0L0 0Z"   fill="#FFFFFF" fill-opacity="0"></path><g opacity="0.05"><path d="M849 778.9C792.88 804.06 430.19 876.18 213 802C108.11 757.12 84.47 614.86 76.8 581.77C69.12 548.67 19.18 333.15 160.4 303.51C301.62 273.87 385.05 308.39 447.1 248.05C509.15 187.71 524.62 197.61 575.59 201.6C626.56 205.59 685.63 162 705.47 149C725.31 136 904.53 51.6902 950.35 303.51C957.59 412.38 963.61 530.51 912.91 575.24C862.21 619.97 913.84 660.15 950.35 664.62C986.86 669.09 933.28 745.53 849 778.9Z"   fill="#47B0F1" ></path></g><g opacity="0.1"><path d="M194 306.5L194 307.5C194 311.639 190.639 315 186.5 315L155 315C151.226 314.998 148.129 317.988 148 321.76L148 322C147.998 325.774 150.988 328.871 154.76 329L158 329L158 329.15C161.49 329.866 163.997 332.937 164 336.5L164 337.5C164 341.639 160.639 345 156.5 345L77.5 345C73.3606 345 70 341.639 70 337.5L70 336.5C70 332.361 73.3606 329 77.5 329L109 329C112.774 329.002 115.871 326.012 116 322.24L116 322C116.002 318.226 113.012 315.129 109.24 315L106 315L106 314.85C102.508 314.137 99.9993 311.065 100 307.5L100 306.5C100 302.361 103.361 299 107.5 299L186.5 299C190.639 299 194 302.361 194 306.5Z"   fill="url(#linear_fill_f-KU7DhyQchwpfGTODv2E)" ></path></g><g opacity="0.1"><path d="M894 137.5C894 141.64 890.639 145 886.5 145L855 145C851.226 144.998 848.129 147.989 848 151.76L848 152C847.998 155.775 850.988 158.871 854.76 159L858 159L858 159.15C861.49 159.867 863.997 162.937 864 166.5L864 167.5C864 171.64 860.639 175 856.5 175L777.5 175C773.361 175 770 171.64 770 167.5L770 166.5C770 162.361 773.361 159 777.5 159L809 159C812.774 159.003 815.871 156.012 816 152.24L816 152C816.002 148.226 813.012 145.13 809.24 145L806 145L806 144.85C802.508 144.138 799.999 141.065 800 137.5L800 136.5C800 132.361 803.361 129 807.5 129L886.5 129C890.639 129 894 132.361 894 136.5L894 137.5Z"   fill="url(#linear_fill_1DMtVFcLW5akllH-Cv_XV)" ></path></g><path d="M890.61 847.13C877.61 850.88 863.2 854.43 847.45 857.75C847.818 859.813 848.002 861.904 848 864C848 915.91 735.18 958 596 958C471.35 958 367.83 924.24 347.59 879.89C180.2 867.13 62 835.72 62 799C62 751 264.37 712 514.52 712C645.62 712 763.78 722.79 846.3 740C927.06 740.65 992 765 992 795C992 819.23 949.55 839.8 890.61 847.13Z"   fill="url(#linear_fill_1msr-I-abshi2focElEsF)" ></path><path d="M686.61 226.65L686.61 226.55C681.28 211.55 663.91 204.44 649.17 206.62C660.1 199.83 678.17 198.02 686.61 208.44L686.61 208.53C695.07 198.2 713.2 199.92 724.04 206.71C709.32 204.63 691.95 211.71 686.61 226.64L686.61 226.65Z"   fill="url(#linear_fill_vLPJHHweL_37yHdgLlX9F)" ></path><path d="M770 214.11L770 214C766.3 203.58 754.27 198.69 744.06 200.19C751.63 195.48 764.13 194.19 770 201.45L770 201.51C775.87 194.35 788.44 195.51 796 200.25C785.79 198.81 773.76 203.71 770 214.07L770 214.11Z"   fill="url(#linear_fill_58BIbrfiqgA6afWXd7qt0)" ></path><path d="M735.24 179.63L735.24 179.57C731.54 169.14 719.51 164.25 709.24 165.75C716.82 161.04 729.32 159.75 735.24 167.01L735.24 167.07C741.11 159.92 753.67 161.07 761.24 165.82C751.02 164.37 739 169.27 735.24 179.63Z"   fill="url(#linear_fill_tdCrBcMSfCCOreHMghS6u)" ></path><path d="M840.72 220.07L840.72 220.07C838.16 212.84 829.82 209.44 822.72 210.49C827.97 207.23 836.63 206.35 840.72 211.36L840.72 211.36C844.8 206.36 853.5 207.23 858.72 210.49C851.63 209.49 843.29 212.89 840.72 220.07Z"   fill="url(#linear_fill_RKI7f4zbUtSKlRG_JNzpa)" ></path><path d="M145.62 702.89C145.62 702.89 145.62 702.89 126.42 679.75C116.267 664.797 104.153 662.66 90.08 673.34C90.08 673.34 90.08 673.34 54.17 676.4C21.5033 661.734 6.83666 668.947 10.17 698.04C12.0567 707.073 15.4567 712.727 20.37 715C33.21 730.647 40 743.187 40.74 752.62C41.85 766.76 52.85 782.78 80.4 773.62C98.7667 767.507 111.38 777.734 118.24 804.3C138.947 831.74 175.323 842.703 227.37 837.19C227.37 837.19 227.37 837.19 217.44 765.19C201.493 758.89 189.313 755 180.9 753.52C180.9 753.52 180.9 753.52 168.54 726C168.54 715.447 160.9 707.744 145.62 702.89Z"   fill="url(#linear_fill_BH3i_I7vNLxTodlBJ7kYx)" ></path><path d="M143.13 751.91L143.02 751.75C144.127 734.464 143.68 722.397 141.68 715.55C144.37 719.14 147.24 744.92 145.68 753.55L182.68 778.25C182.47 778.01 182.34 777.84 182.34 777.84C182.34 777.84 184.25 763.56 182.56 756.37C184.23 758.37 185.35 773.37 184.86 779.71L215.41 800.1L211.52 804L180 781.68C171.48 786.68 159.79 787.47 154.14 786.94C164.587 785.987 172.22 783.59 177.04 779.75C177.809 780.378 178.648 780.915 179.54 781.35L90.7 718.45C90.9 718.68 91.08 718.9 91.26 719.14C78.1 721 66.2867 720.207 55.82 716.76C56.66 715.09 70.57 721.59 88.93 717.21L52.64 691.51L100.91 723.73C98.45 710.81 95.51 700.344 92.09 692.33C87.02 680.46 102.68 712.12 102.89 725.05L143.13 751.91Z"   fill="url(#linear_fill_2MWMzUDoqd8cwbmCZg0FO)" ></path><path d="M94 768.36C104.54 768.667 118.263 762.577 135.17 750.09C135.859 750.88 136.601 751.621 137.39 752.31C121.39 764.93 104.24 769.9 94 768.36Z"   fill="url(#linear_fill_IXkqLnTFspTJQViAv8f5P)" ></path><path d="M107.68 762.35C102.953 783.43 129.027 798.557 185.9 807.73C271.23 821.49 250.9 789.86 228.96 755.57C213.09 739.69 210.96 729.99 210.96 717.85C210.96 705.71 222.57 685.85 189.2 677.61C174.533 674.277 166.847 659.61 166.14 633.61C163.84 620.55 149.84 617.284 124.14 623.81C112.753 625.997 101.23 620.487 89.57 607.28C57.4033 585.387 42.4767 590.89 44.79 623.79C51 647.36 55 663.12 53 677.56C51 692 57.31 719.31 89.56 730.56C111.06 738.034 117.1 748.63 107.68 762.35Z"   fill="url(#linear_fill_wZZN5BklxaCyg8_iEgsdC)" ></path><path d="M176.63 728.36C177.52 734.01 177.63 741.58 172.74 749.04L212 799L205.77 799L167.77 748.45C149.39 756.29 139.07 753.01 133.96 750.7C143.96 753.14 154.533 751.474 165.68 745.7L136.81 707.26C136.97 707.55 137.13 707.86 137.31 708.17C118.1 714.9 98.16 715.7 88.95 710.91C98.81 714.63 114.477 712.777 135.95 705.35L135.52 705.5L103.35 662.66C103.42 662.84 103.48 663.01 103.53 663.18C89.4033 664.047 78.1233 659.55 69.69 649.69C71.03 648.39 80.04 661.5 101.83 660.69L74.94 624.74L110.38 669.8L110.45 669.63C114.284 660.709 115.109 650.782 112.8 641.35L112.72 641.04L112.72 641.04C115.06 648.31 119.53 656.98 112.11 671.97L142.11 710.15L142.3 709.88C148.3 701.4 151.3 690.247 151.3 676.42C152.68 680.72 152.71 700.42 144.14 712.69L170.75 746.51C172.43 743.9 176.63 736.56 176.63 728.36Z" fill-rule="evenodd"  fill="url(#linear_fill_t174nhE-wv8NIm24I6PGC)" ></path><path d="M205.56 765.98C199.19 755.04 162.1 751.28 172 718.47C180.25 705.04 191.74 701.16 180.21 678.31C168.68 655.46 165.75 664.63 180.21 642.12C186.53 635.654 192.86 624.53 199.2 608.75C211.62 591.49 222.737 593.244 232.55 614.01C237.31 631.95 229.8 643.35 254.37 651.51C270.757 656.95 273.237 668.334 261.81 685.66C257.043 696.56 260.57 703.53 272.39 706.57C272.39 706.57 272.39 706.57 268.12 742.79C263.04 754.364 263.04 762.097 268.12 765.99C275.75 771.82 290.4 789.34 272.39 823.38C254.38 857.42 211.93 830.98 205.56 814.98C199.19 798.98 211.93 776.92 205.56 765.98Z"   fill="url(#linear_fill_lo9utP9Yu5VxiEyN0deOu)" ></path><path d="M247.14 794.42L254.32 830.42L248.9 830.42L242.39 792.33C232.8 789.87 224 782.14 220.39 777.77C228.45 784.484 235.543 788.187 241.67 788.88C241.769 789.864 241.981 790.834 242.3 791.77L224 684.47C223.99 684.765 223.96 685.059 223.91 685.35C213.29 677.35 205.5 668.437 200.54 658.61C202.31 658.03 207.54 672.46 223.64 682.34L216.11 638.51L227.46 695.42C234.847 684.56 240.18 675.084 243.46 666.99C248.27 654.99 236.96 688.47 227.96 697.76L237.42 745.21C237.414 745.147 237.414 745.083 237.42 745.02C250.433 733.58 258.65 724.73 262.07 718.47C261.43 722.91 245.22 743.17 237.97 748.17L246.68 791.81L246.68 791.28C246.68 791.28 258.12 782.53 262.02 776.28C261.77 778.9 252.02 790.28 247.14 794.42Z"   fill="url(#linear_fill_ZSF4s7sFJaWwb3ochszTB)" ></path><path d="M191 722.08C198.227 729.747 212.227 735.143 233 738.27C232.93 739.316 232.93 740.365 233 741.41C212.8 739 197.16 730.42 191 722.08Z"   fill="url(#linear_fill_E92U52zM70ItzFSRC166q)" ></path><path d="M938.4 787.52C941.3 765.307 933.833 753.344 916 751.63C940.14 749.33 956.12 764.02 956.38 787.52C951.38 787.693 945.387 787.693 938.4 787.52Z"   fill="url(#linear_fill_kX35Hk1X-JaMHlyWCIN_h)" ></path><path d="M950.12 787.65C954.833 765.217 949.037 748.667 932.73 738C953.55 744.57 968.51 754.44 973.37 787.65C965.627 788.124 957.863 788.124 950.12 787.65Z"   fill="url(#linear_fill_flzRNbydo3-IvENIbYmaG)" ></path><path d="M977.07 788C974.977 766.7 982.62 754.497 1000 751.39C983.89 750.99 965.91 749.91 953 788C963.933 787.647 971.957 787.647 977.07 788Z"   fill="url(#linear_fill_YEqeZhgiKEZ4YcssnR-TP)" ></path><path d="M927.41 802C944.26 802 957 802.41 957 786.61C957 770.81 943.34 758 926.5 758C909.66 758 896 770.81 896 786.61C896 802.41 910.57 802 927.41 802Z"   fill="url(#linear_fill_NMWvhm8sN24TZgYaKv9Ya)" ></path><path d="M960.57 802C971.06 802 979 802.25 979 792.56C979 782.87 970.49 775 960 775C949.51 775 941 782.86 941 792.56C941 802.26 950.07 802 960.57 802Z"   fill="url(#linear_fill_l_tOHYei7lrUX6yh6FsH0)" ></path><g opacity="0.4"><path d="M313.08 798.5C335.41 805.5 326.52 809.68 319.08 813.79C305.44 821.33 311.57 827.93 318.5 834C328.77 843 405.43 864.63 488.55 846.22C566.06 829.06 554.38 798.22 534.46 784.22C518.43 773 448.5 747.49 368.54 753C320.42 756.3 299.76 764.56 295.75 770.93C289.11 781.47 288.21 790.71 313.08 798.5Z"   fill="url(#linear_fill_9CB_RVtfgsHl9JKt-XRx9)" ></path></g><path d="M799.663 380.484C805.628 386.425 808.987 394.492 809 402.91L809 715.44C808.987 723.859 805.628 731.927 799.664 737.869C793.7 743.811 785.619 747.138 777.2 747.12L547.85 747.12C539.433 747.136 531.354 743.807 525.392 737.865C519.43 731.924 516.073 723.857 516.06 715.44L516.06 402.91C516.073 394.494 519.431 386.428 525.393 380.488C531.355 374.548 539.434 371.221 547.85 371.24L777.2 371.24C785.618 371.219 793.699 374.544 799.663 380.484Z"   fill="url(#linear_fill_WcuPOEXZR3lHKqTPOwYle)" ></path><path d="M785.629 392.926C791.571 398.89 794.899 406.971 794.88 415.39L794.88 724.15C794.908 741.675 780.726 755.907 763.2 755.94L544.2 755.94C535.782 755.924 527.715 752.565 521.774 746.601C515.833 740.637 512.504 732.558 512.52 724.14L512.52 415.39C512.501 406.971 515.829 398.89 521.771 392.926C527.713 386.962 535.781 383.603 544.2 383.59L763.2 383.59C771.619 383.603 779.687 386.962 785.629 392.926Z"   fill="url(#linear_fill_VwpZJxSQGFdLcOlvJsf7D)" ></path><path d="M546.06 412.76C546.06 411.573 546.532 410.434 547.373 409.596C548.213 408.757 549.353 408.287 550.54 408.29L760.4 408.29C761.587 408.287 762.727 408.757 763.567 409.596C764.408 410.434 764.88 411.573 764.88 412.76L764.88 712.65C764.875 715.12 762.87 717.12 760.4 717.12L550.54 717.12C549.353 717.123 548.213 716.653 547.373 715.814C546.532 714.976 546.06 713.837 546.06 712.65L546.06 412.76Z"   fill="#98D6FA" ></path><path d="M450.78 652C449.278 650.776 448.652 648.774 449.19 646.913C449.729 645.052 451.327 643.693 453.25 643.46C556.57 634.1 543.99 449.18 544.71 413.72C544.77 410.72 546.71 408.32 549.71 408.32L758.31 408.32C760.974 408.331 763.125 410.496 763.12 413.16L752.19 611.71C751.737 613.156 751.091 614.535 750.27 615.81L668.36 704.65C667.38 705.81 645.92 715.46 644.41 715.35C624.86 714 517.35 705.87 450.78 652Z"   fill="#FFFFFF" ></path><path d="M674.12 646.45C686.12 647.21 721.83 647.45 752.53 613C745.25 649.28 698.53 714.9 637.82 715.35C672.71 697.35 671.37 664.05 670.27 649.11C670.14 647.36 672.37 646.34 674.12 646.45Z"   fill="url(#linear_fill_rr0PUA-4JK2uH9WNnT6nz)" ></path><path     fill="url(#linear_fill_Hb9B34Iwo1OkLfM7KLUHS_0)"  d="M591.94 461.77C591.94 463.427 593.283 464.77 594.94 464.77L730.12 464.77C731.777 464.77 733.12 463.427 733.12 461.77L733.12 457.18C733.12 455.523 731.777 454.18 730.12 454.18L594.94 454.18C593.283 454.18 591.94 455.523 591.94 457.18L591.94 461.77"></path><path     fill="url(#linear_fill_VZrrOzqSMDAMIiAH7vLL9_0)"  d="M588.41 497.06C588.41 498.717 589.753 500.06 591.41 500.06L726.59 500.06C728.247 500.06 729.59 498.717 729.59 497.06L729.59 492.47C729.59 490.813 728.247 489.47 726.59 489.47L591.41 489.47C589.753 489.47 588.41 490.813 588.41 492.47L588.41 497.06"></path><path     fill="url(#linear_fill_PVzjQUuMRhC9WC8DDdNK0_0)"  d="M584.88 532.35C584.88 534.007 586.223 535.35 587.88 535.35L652.47 535.35C654.127 535.35 655.47 534.007 655.47 532.35L655.47 527.76C655.47 526.103 654.127 524.76 652.47 524.76L587.88 524.76C586.223 524.76 584.88 526.103 584.88 527.76L584.88 532.35"></path><path     fill="url(#linear_fill_CjUXFy5HxIVitUQAqgmYI_0)"  d="M666.06 532.35C666.06 534.007 667.403 535.35 669.06 535.35L673.65 535.35C675.307 535.35 676.65 534.007 676.65 532.35L676.65 527.76C676.65 526.103 675.307 524.76 673.65 524.76L669.06 524.76C667.403 524.76 666.06 526.103 666.06 527.76L666.06 532.35"></path><path d="M582.44 568.29C581.644 568.261 580.892 567.917 580.35 567.334C579.808 566.751 579.52 565.976 579.55 565.18L579.71 560.6C579.736 559.804 580.077 559.051 580.659 558.507C581.24 557.964 582.014 557.673 582.81 557.7L717.91 562.42C719.563 562.48 720.856 563.867 720.8 565.52L720.64 570.11C720.58 571.763 719.193 573.056 717.54 573L582.44 568.29Z"   fill="url(#linear_fill_91LDdI8YzSsg2UxhOeoB3)" ></path><path d="M707.38 600.08C709.031 600.198 710.274 601.629 710.16 603.28L709.84 607.86C709.723 609.511 708.291 610.755 706.64 610.64L571.8 601.21C571.002 601.159 570.257 600.791 569.731 600.188C569.206 599.586 568.942 598.798 569 598L569.32 593.42C569.443 591.769 570.879 590.53 572.53 590.65L707.38 600.08Z"   fill="url(#linear_fill_joyXHqKOhkq8MwsfmqE5W)" ></path><path d="M559.32 636C557.678 635.797 556.51 634.303 556.71 632.66L557.27 628.1C557.36 627.306 557.763 626.581 558.391 626.085C559.018 625.589 559.816 625.364 560.61 625.46L624.72 633.33C625.511 633.427 626.23 633.835 626.72 634.464C627.209 635.092 627.429 635.89 627.33 636.68L626.77 641.23C626.567 642.872 625.073 644.04 623.43 643.84L559.32 636Z"   fill="url(#linear_fill_2omX24gOQHX1RINVy_5ud)" ></path><path d="M645.74 635.91C646.531 636.007 647.25 636.415 647.74 637.044C648.229 637.672 648.449 638.469 648.35 639.26L647.79 643.81C647.587 645.452 646.093 646.62 644.45 646.42L639.89 645.86C638.248 645.657 637.08 644.163 637.28 642.52L637.84 637.97C637.935 637.179 638.34 636.459 638.967 635.968C639.593 635.476 640.39 635.254 641.18 635.35L645.74 635.91Z"   fill="url(#linear_fill_Ez4Aqr0xAHz2NvomC5Neo)" ></path><path d="M611.35 383.59L611.35 415.35L703.11 415.35L703.11 383.59L611.35 383.59Z"   fill="#64AFDE" ></path><path d="M618.41 371.24L710.18 371.24L703.12 383.59L611.35 383.59L618.41 371.24L618.41 371.24Z"   fill="#64AFDE" ></path><path d="M654.68 373.55C648.746 371.092 644.88 365.303 644.88 358.88C644.88 350.11 651.99 343 660.76 343C667.183 343 672.972 346.866 675.43 352.8C677.888 358.734 676.532 365.568 671.99 370.11C667.448 374.652 660.614 376.008 654.68 373.55ZM654.52 365.14C651.992 362.616 651.234 358.811 652.6 355.51C653.966 352.209 657.187 350.06 660.76 350.06C663.101 350.06 665.343 350.986 667 352.64C668.656 354.294 669.59 356.539 669.59 358.88C669.59 362.452 667.449 365.67 664.15 367.04C660.85 368.41 657.047 367.665 654.52 365.14Z" fill-rule="evenodd"  fill="#64AFDE" ></path><path d="M360.22 794.51C356.67 797.77 354.15 798.51 353.42 801.25C352.69 803.99 355.34 810.25 358.61 811.65C362.76 813.37 370.11 815.88 372.17 816.65C374.23 817.42 388.47 822.21 392.3 819.31C396.13 816.41 392.3 809.81 383.94 805.31C375.58 800.81 363.11 795.31 363.11 795.31L360.22 794.51Z"   fill="#333333" ></path><path d="M438.31 739.68C438.31 744.49 437.11 746.85 438.6 749.24C440.09 751.63 446.52 754 449.75 752.53C453.84 750.67 460.69 747.01 462.64 746.02C464.59 745.03 477.82 737.89 478.31 733.11C478.8 728.33 471.31 726.65 462.37 729.67C453.43 732.69 440.86 738.09 440.86 738.09L438.31 739.68Z"   fill="#333333" ></path><path d="M451 734.2C451.77 689.3 444 655.39 434 649.08C421.59 634.76 399.14 628.82 399.14 628.82L358 649.08C358 649.08 395.54 665.31 419.21 681.57C421.07 697.49 422.06 700.18 426.44 712.67C431.9 728.19 437.1 734.57 438.64 739C440.18 743.43 451.85 739.87 451 734.2Z"   fill="url(#linear_fill_CKh8OTlzFOtxMjog7b8s8)" ></path><path d="M390 658.3C391.43 688.67 388.34 701.79 386.26 725C384.18 748.21 373.7 786.11 371 799.55C369.19 808.69 354.34 803.04 355.11 795C355.88 786.96 356.28 739 354.56 725.06C352.84 711.12 350 640.54 350 640.54L387.77 635.83L390 658.3Z"   fill="url(#linear_fill_R3Vz3zYwbaBs_r2JOmfKW)" ></path><path d="M374.98 506.81C375.689 507.587 376.288 508.459 376.76 509.4L376.85 509.58L376.75 509.09C377.87 509.41 378.35 511.39 378.39 513.8L378.39 514C381.1 513.26 383.04 521.54 377.14 521.76C376.965 522.248 376.733 522.715 376.45 523.15C374.96 525.32 373.33 528.15 371.02 529.78L371.02 535.86L359 536L359 528.86C358.009 528.047 357.169 527.065 356.52 525.96C355.643 524.633 354.912 523.214 354.34 521.73L354.58 521.73C347.58 522.22 349.9 512.57 352.87 514.09C352.87 513.77 352.87 513.44 352.87 513.09C353.151 510.405 354.242 507.869 356 505.82C358.434 503.017 362.107 501.614 365.79 502.08C369.345 502.426 372.632 504.119 374.98 506.81Z" fill-rule="evenodd"  fill="#EBB0B0" ></path><path d="M352.49 493.77C348.963 496.74 346.687 500.933 346.12 505.51C345.38 511.05 348.29 513.8 350.71 518C352.95 516.61 353.49 513.41 355.07 511.33C357.279 508.793 360.044 506.801 363.15 505.51C369.85 504.51 373.06 504.51 376.08 510.51L377.61 515C381.74 511.08 383.24 498 375.42 494.66C374.54 493.61 372.68 493.34 370.18 493.3C368.37 493.25 368.18 493.93 367.24 493.77C366.3 493.61 364.95 491.46 361.42 491.03C359.51 490.77 353.74 492.17 352.49 493.77Z"   fill="#131322" ></path><path d="M386.53 447.33C385.02 443.237 384.386 438.873 384.67 434.52C385.78 431.72 386.45 432.66 386.29 434.27C387.29 433.01 391.23 427.07 398.88 434.36C400.26 438.17 400.88 446.27 396 450.83C392.853 453.023 389.697 451.856 386.53 447.33Z"   fill="#EFBA9E" ></path><path d="M368 539.39C368 539.39 387 513.919 386.21 449.73C387.77 439.73 396.04 440.94 400.52 443.06C400.52 443.06 416 539 401 553L368 539.39Z"   fill="url(#linear_fill_NG5D3RngjMBdTqcox2_JA)" ></path><path d="M358.19 531C364.777 534.333 369.06 534.436 371.04 531.31C373.83 531.409 392.04 529.68 401.04 545.59C406.75 562.76 411.04 604.16 406.04 624.94C401.04 648 374.87 650.51 349.04 648.219C338.37 635.43 322.33 581.549 328.04 561C332.193 546.56 342.243 536.56 358.19 531Z"   fill="url(#linear_fill_zA8StGP3saxWgkzmy4LxZ)" ></path><path d="M398 581L394 579.2C391.481 578.088 389.733 575.733 389.4 573L385.48 540.92C385.314 539.313 386.45 537.863 388.05 537.64C388.335 537.6 388.625 537.6 388.91 537.64C391.234 538.039 393.02 539.918 393.3 542.26L398 581Z"   fill="url(#linear_fill_jUJ-YUNzPOMQhUITW2OEx)" ></path><path d="M380.86 561.55C381.827 557.295 383.674 553.289 386.28 549.79C388.74 548.05 388.79 549.2 387.78 550.46C389.26 549.93 395.84 547.12 398.29 557.39C397.37 561.39 393.46 568.46 386.9 569.64C383.073 569.76 381.06 567.063 380.86 561.55Z"   fill="#EFBA9E" ></path><path d="M341.22 553.3C341.22 553.3 358 558 355.87 594.74L382 560.38C392 563.46 388.6 572.79 387 579.02L370 616.24C363.5 627.46 353.41 624.76 349 623.92C344.59 623.08 339.13 617.92 337.43 613.7C329.43 602.03 324.84 589.54 324.95 568.7C324.92 568.74 325.06 548.55 341.22 553.3Z"   fill="url(#linear_fill_xSaALQ9vzmxb8Uhb9yg1z)" ></path><path d="M406.41 507L394.87 526.159L383.74 533C382.701 535.279 382.936 537.938 384.36 540C386.22 542.27 388.9 542.469 389.31 542.68C393.163 540.893 396.94 539.039 400.64 537.12L421.46 536.909L406.41 507Z"   fill="url(#linear_fill_UzxtsTajTQypIII2AFs_9)" ></path><path d="M406.41 507C402.91 508.85 403.32 518.54 406.83 525.54C410.33 532.35 417.96 538.73 421.46 536.88C424.96 535.03 424.14 525.96 421.46 519.77C417.96 512.15 409.92 505.14 406.46 507L406.41 507Z"   fill="#98D6FA" ></path><path d="M401.51 524.71L408.57 520.96C410.52 519.922 412.941 520.66 413.98 522.61L413.98 522.61C415.018 524.559 414.279 526.981 412.33 528.02L405.27 531.78C404.333 532.277 403.236 532.382 402.221 532.071C401.206 531.759 400.357 531.058 399.86 530.12L399.86 530.12C398.822 528.17 399.561 525.748 401.51 524.71Z"   fill="#FFFFFF" ></path><path d="M417.74 509.38L422.26 500.87L424.52 504.91L435.12 495.25L423.28 508.24L422.1 504.99L417.74 509.38L417.74 509.38Z"   fill="#98D6FA" ></path><path d="M425.26 523.11L433.84 518.74L433.38 523.35L447.6 521.52L430.45 525.36L431.35 522.02L425.26 523.11L425.26 523.11Z"   fill="#98D6FA" ></path><defs><linearGradient id="linear_fill_f-KU7DhyQchwpfGTODv2E" x1="-26039.859375" y1="44189.25" x2="-25960.5" y2="44192.96875" gradientUnits="userSpaceOnUse"><stop offset="0" stop-color="#98D6FA"  /><stop offset="1" stop-color="#47B0F1"  /></linearGradient><linearGradient id="linear_fill_1DMtVFcLW5akllH-Cv_XV" x1="-25339.859375" y1="44019.25" x2="-25260.5" y2="44022.96875" gradientUnits="userSpaceOnUse"><stop offset="0" stop-color="#98D6FA"  /><stop offset="1" stop-color="#47B0F1"  /></linearGradient><linearGradient id="linear_fill_1msr-I-abshi2focElEsF" x1="-198530.234375" y1="230978.65625" x2="-197600.234375" y2="230978.65625" gradientUnits="userSpaceOnUse"><stop offset="0" stop-color="#FFF5DE"  /><stop offset="1" stop-color="#FBD2AC"  /></linearGradient><linearGradient id="linear_fill_vLPJHHweL_37yHdgLlX9F" x1="-14947.7099609375" y1="25059.400390625" x2="-14900.5419921875" y2="25060.896484375" gradientUnits="userSpaceOnUse"><stop offset="0" stop-color="#98D6FA"  /><stop offset="1" stop-color="#47B0F1"  /></linearGradient><linearGradient id="linear_fill_58BIbrfiqgA6afWXd7qt0" x1="-9937.560546875" y1="17739.150390625" x2="-9904.3505859375" y2="17740.189453125" gradientUnits="userSpaceOnUse"><stop offset="0" stop-color="#98D6FA"  /><stop offset="1" stop-color="#47B0F1"  /></linearGradient><linearGradient id="linear_fill_tdCrBcMSfCCOreHMghS6u" x1="-9972.349609375" y1="17704.671875" x2="-9939.140625" y2="17705.70703125" gradientUnits="userSpaceOnUse"><stop offset="0" stop-color="#98D6FA"  /><stop offset="1" stop-color="#47B0F1"  /></linearGradient><linearGradient id="linear_fill_RKI7f4zbUtSKlRG_JNzpa" x1="-6453.89990234375" y1="12685.03125" x2="-6431.23876953125" y2="12685.75" gradientUnits="userSpaceOnUse"><stop offset="0" stop-color="#98D6FA"  /><stop offset="1" stop-color="#47B0F1"  /></linearGradient><linearGradient id="linear_fill_BH3i_I7vNLxTodlBJ7kYx" x1="-82335.640625" y1="134235.078125" x2="-82160.6875" y2="134254.21875" gradientUnits="userSpaceOnUse"><stop offset="0" stop-color="#98D6FA"  /><stop offset="1" stop-color="#47B0F1"  /></linearGradient><linearGradient id="linear_fill_2MWMzUDoqd8cwbmCZg0FO" x1="116156.25" y1="138938.1875" x2="116169.046875" y2="138933.21875" gradientUnits="userSpaceOnUse"><stop offset="0.03" stop-color="#AFDEF9"  /><stop offset="1" stop-color="#7CC9F9"  /></linearGradient><linearGradient id="linear_fill_IXkqLnTFspTJQViAv8f5P" x1="31044.025390625" y1="23179.373046875" x2="31047.435546875" y2="23178.56640625" gradientUnits="userSpaceOnUse"><stop offset="0.03" stop-color="#AFDEF9"  /><stop offset="1" stop-color="#7CC9F9"  /></linearGradient><linearGradient id="linear_fill_wZZN5BklxaCyg8_iEgsdC" x1="-43094" y1="203666.3125" x2="-42984.06640625" y2="203715.171875" gradientUnits="userSpaceOnUse"><stop offset="0" stop-color="#98D6FA"  /><stop offset="1" stop-color="#47B0F1"  /></linearGradient><linearGradient id="linear_fill_t174nhE-wv8NIm24I6PGC" x1="75172.296875" y1="189912.96875" x2="75181.6484375" y2="189907.9375" gradientUnits="userSpaceOnUse"><stop offset="0.03" stop-color="#AFDEF9"  /><stop offset="1" stop-color="#7CC9F9"  /></linearGradient><linearGradient id="linear_fill_lo9utP9Yu5VxiEyN0deOu" x1="-23084.80078125" y1="228008.84375" x2="-23060.455078125" y2="228071.921875" gradientUnits="userSpaceOnUse"><stop offset="0" stop-color="#98D6FA"  /><stop offset="1" stop-color="#47B0F1"  /></linearGradient><linearGradient id="linear_fill_ZSF4s7sFJaWwb3ochszTB" x1="-12600.669921875" y1="180488.25" x2="-12590.2080078125" y2="180483.265625" gradientUnits="userSpaceOnUse"><stop offset="0.03" stop-color="#AFDEF9"  /><stop offset="1" stop-color="#7CC9F9"  /></linearGradient><linearGradient id="linear_fill_E92U52zM70ItzFSRC166q" x1="-8547.02734375" y1="18837.318359375" x2="-8539.8857421875" y2="18836.81640625" gradientUnits="userSpaceOnUse"><stop offset="0.03" stop-color="#AFDEF9"  /><stop offset="1" stop-color="#7CC9F9"  /></linearGradient><linearGradient id="linear_fill_kX35Hk1X-JaMHlyWCIN_h" x1="-7302.3701171875" y1="35558.2890625" x2="-7318.5224609375" y2="35589.3828125" gradientUnits="userSpaceOnUse"><stop offset="0" stop-color="#98D6FA"  /><stop offset="1" stop-color="#47B0F1"  /></linearGradient><linearGradient id="linear_fill_flzRNbydo3-IvENIbYmaG" x1="-7341.859375" y1="48355.390625" x2="-7319.1015625" y2="48376.1171875" gradientUnits="userSpaceOnUse"><stop offset="0" stop-color="#98D6FA"  /><stop offset="1" stop-color="#47B0F1"  /></linearGradient><linearGradient id="linear_fill_YEqeZhgiKEZ4YcssnR-TP" x1="-8670.3798828125" y1="35986.78125" x2="-8630.47265625" y2="36000.86328125" gradientUnits="userSpaceOnUse"><stop offset="0" stop-color="#98D6FA"  /><stop offset="1" stop-color="#47B0F1"  /></linearGradient><linearGradient id="linear_fill_NMWvhm8sN24TZgYaKv9Ya" x1="-11733.5" y1="42784.41015625" x2="-11681.650390625" y2="42800.26953125" gradientUnits="userSpaceOnUse"><stop offset="0" stop-color="#98D6FA"  /><stop offset="1" stop-color="#47B0F1"  /></linearGradient><linearGradient id="linear_fill_l_tOHYei7lrUX6yh6FsH0" x1="-6768.6201171875" y1="26960.580078125" x2="-6736.31982421875" y2="26970.080078125" gradientUnits="userSpaceOnUse"><stop offset="0" stop-color="#98D6FA"  /><stop offset="1" stop-color="#47B0F1"  /></linearGradient><linearGradient id="linear_fill_9CB_RVtfgsHl9JKt-XRx9" x1="68702.0546875" y1="96687.3125" x2="68953.7578125" y2="96687.3125" gradientUnits="userSpaceOnUse"><stop offset="0" stop-color="#F5DDA7"  /><stop offset="1" stop-color="#FA9A41"  /></linearGradient><linearGradient id="linear_fill_WcuPOEXZR3lHKqTPOwYle" x1="-61745.91015625" y1="351673.5625" x2="-61488.125" y2="351878.625" gradientUnits="userSpaceOnUse"><stop offset="0" stop-color="#98D6FA"  /><stop offset="1" stop-color="#47B0F1"  /></linearGradient><linearGradient id="linear_fill_VwpZJxSQGFdLcOlvJsf7D" x1="-59483.66015625" y1="348397.53125" x2="-59291.6640625" y2="348208.34375" gradientUnits="userSpaceOnUse"><stop offset="0" stop-color="#98D6FA"  /><stop offset="1" stop-color="#47B0F1"  /></linearGradient><linearGradient id="linear_fill_rr0PUA-4JK2uH9WNnT6nz" x1="-23482.919921875" y1="97017.0078125" x2="-23386.5625" y2="96991.7734375" gradientUnits="userSpaceOnUse"><stop offset="0" stop-color="#98D6FA"  /><stop offset="1" stop-color="#47B0F1"  /></linearGradient><linearGradient id="linear_fill_Hb9B34Iwo1OkLfM7KLUHS_0" x1="-29193.880859375" y1="11351.130859375" x2="-29047.052734375" y2="11351.130859375" gradientUnits="userSpaceOnUse"><stop offset="0" stop-color="#98D6FA"  /><stop offset="1" stop-color="#47B0F1"  /></linearGradient><linearGradient id="linear_fill_VZrrOzqSMDAMIiAH7vLL9_0" x1="-29197.41015625" y1="11386.4296875" x2="-29050.58203125" y2="11386.4296875" gradientUnits="userSpaceOnUse"><stop offset="0" stop-color="#98D6FA"  /><stop offset="1" stop-color="#47B0F1"  /></linearGradient><linearGradient id="linear_fill_PVzjQUuMRhC9WC8DDdNK0_0" x1="-14096.5703125" y1="11421.7109375" x2="-14023.15625" y2="11422.416015625" gradientUnits="userSpaceOnUse"><stop offset="0" stop-color="#98D6FA"  /><stop offset="1" stop-color="#47B0F1"  /></linearGradient><linearGradient id="linear_fill_CjUXFy5HxIVitUQAqgmYI_0" x1="-1192.489990234375" y1="11421.201171875" x2="-1181.476318359375" y2="11427.130859375" gradientUnits="userSpaceOnUse"><stop offset="0" stop-color="#98D6FA"  /><stop offset="1" stop-color="#47B0F1"  /></linearGradient><linearGradient id="linear_fill_91LDdI8YzSsg2UxhOeoB3" x1="-29531.978515625" y1="10393.4599609375" x2="-29385.15625" y2="10393.4599609375" gradientUnits="userSpaceOnUse"><stop offset="0" stop-color="#98D6FA"  /><stop offset="1" stop-color="#47B0F1"  /></linearGradient><linearGradient id="linear_fill_joyXHqKOhkq8MwsfmqE5W" x1="-29831.01953125" y1="9354.48046875" x2="-29684.19921875" y2="9354.48046875" gradientUnits="userSpaceOnUse"><stop offset="0" stop-color="#98D6FA"  /><stop offset="1" stop-color="#47B0F1"  /></linearGradient><linearGradient id="linear_fill_2omX24gOQHX1RINVy_5ud" x1="-15213.8603515625" y1="9605.0302734375" x2="-15139.7451171875" y2="9605.736328125" gradientUnits="userSpaceOnUse"><stop offset="0" stop-color="#98D6FA"  /><stop offset="1" stop-color="#47B0F1"  /></linearGradient><linearGradient id="linear_fill_Ez4Aqr0xAHz2NvomC5Neo" x1="-2406.83984375" y1="11179.2001953125" x2="-2395.7216796875" y2="11185.2353515625" gradientUnits="userSpaceOnUse"><stop offset="0" stop-color="#98D6FA"  /><stop offset="1" stop-color="#47B0F1"  /></linearGradient><linearGradient id="linear_fill_CKh8OTlzFOtxMjog7b8s8" x1="-19122.509765625" y1="106191.8828125" x2="-19209.01953125" y2="106232.8125" gradientUnits="userSpaceOnUse"><stop offset="0" stop-color="#1D181C"  /><stop offset="0.3" stop-color="#2C2422"  /><stop offset="0.5" stop-color="#42352C"  /><stop offset="0.7" stop-color="#57352C"  /><stop offset="1" stop-color="#923629"  /></linearGradient><linearGradient id="linear_fill_R3Vz3zYwbaBs_r2JOmfKW" x1="-7864.5703125" y1="158610.421875" x2="-7867.3955078125" y2="158628.1875" gradientUnits="userSpaceOnUse"><stop offset="0" stop-color="#1D181C"  /><stop offset="0.3" stop-color="#2C2422"  /><stop offset="0.5" stop-color="#42352C"  /><stop offset="0.7" stop-color="#57352C"  /><stop offset="1" stop-color="#923629"  /></linearGradient><linearGradient id="linear_fill_NG5D3RngjMBdTqcox2_JA" x1="-7671.1796875" y1="105284.796875" x2="-7710.73046875" y2="105284.796875" gradientUnits="userSpaceOnUse"><stop offset="0" stop-color="#FFB859"  /><stop offset="1" stop-color="#F97B61"  /></linearGradient><linearGradient id="linear_fill_zA8StGP3saxWgkzmy4LxZ" x1="-16666.1796875" y1="111419.34375" x2="-16746.765625" y2="111419.34375" gradientUnits="userSpaceOnUse"><stop offset="0" stop-color="#FFB859"  /><stop offset="1" stop-color="#F97B61"  /></linearGradient><linearGradient id="linear_fill_jUJ-YUNzPOMQhUITW2OEx" x1="-1886.81005859375" y1="41966.0703125" x2="-1885.681396484375" y2="41973.08984375" gradientUnits="userSpaceOnUse"><stop offset="0" stop-color="#98D6FA"  /><stop offset="1" stop-color="#47B0F1"  /></linearGradient><linearGradient id="linear_fill_xSaALQ9vzmxb8Uhb9yg1z" x1="-12928.830078125" y1="68892.875" x2="-12899.4267578125" y2="68898.625" gradientUnits="userSpaceOnUse"><stop offset="0" stop-color="#F97B61"  /><stop offset="1" stop-color="#FFB859"  /></linearGradient><linearGradient id="linear_fill_UzxtsTajTQypIII2AFs_9" x1="-219.1300048828125" y1="-933.41064453125" x2="-179.235595703125" y2="-915.94189453125" gradientUnits="userSpaceOnUse"><stop offset="0" stop-color="#98D6FA"  /><stop offset="1" stop-color="#47B0F1"  /></linearGradient></defs></svg>