<svg xmlns="http://www.w3.org/2000/svg" xmlns:xlink="http://www.w3.org/1999/xlink" width="1024" height="1024" viewBox="0 0 1024 1024" fill="none"><g  clip-path="url(#clip-path-jGNd9m07PisWX9BS0SbiE)"><g opacity="0"><path d="M0 0L0 1024L1024 1024L1024 0L0 0Z"   fill="#FFFFFF" ></path></g><g opacity="0.05"><path d="M950.351 303.513C957.592 412.384 963.61 530.497 912.913 575.237C862.216 619.978 913.839 660.151 950.351 664.615C986.863 669.08 933.282 745.526 848.951 778.902C792.88 804.056 430.191 876.18 212.995 802.041C108.115 757.125 84.4698 614.862 76.7968 581.767C69.1238 548.672 19.1769 333.146 160.398 303.513C301.619 273.879 385.048 308.393 447.098 248.052C509.149 187.71 524.624 197.614 575.59 201.605C626.557 205.596 685.626 162.039 705.475 148.955C725.324 135.872 904.534 51.6934 950.351 303.513Z"   fill="#47B0F1" ></path></g><g opacity="0.100000001"><path d="M70 336.5C70 332.358 73.3579 329 77.5 329L109 329C112.785 329 115.869 325.995 115.996 322.241L116 322C116 318.215 112.995 315.131 109.241 315.004L109 315L106 315L106 314.85C102.577 314.155 100 311.129 100 307.5L100 306.5C100 302.358 103.358 299 107.5 299L186.5 299C190.642 299 194 302.358 194 306.5L194 307.5C194 311.642 190.642 315 186.5 315L155 315C151.215 315 148.131 318.005 148.004 321.759L148 322C148 325.785 151.005 328.869 154.759 328.996L155 329L158 329L158.001 329.15C161.424 329.845 164 332.872 164 336.5L164 337.5C164 341.642 160.642 345 156.5 345L77.5 345C73.3579 345 70 341.642 70 337.5L70 336.5Z"   fill="url(#linear_fill_qKHcReh0UgVewuO26iyQu)" ></path></g><g opacity="0.100000001"><path d="M815.996 152.241L816 152C816 148.215 812.995 145.131 809.241 145.004L809 145L806 145L806 144.85C802.577 144.155 800 141.129 800 137.5L800 136.5C800 132.358 803.358 129 807.5 129L886.5 129C890.642 129 894 132.358 894 136.5L894 137.5C894 141.642 890.642 145 886.5 145L855 145C851.215 145 848.131 148.005 848.004 151.759L848 152C848 155.785 851.005 158.869 854.759 158.996L855 159L858 159L858.001 159.15C861.424 159.845 864 162.872 864 166.5L864 167.5C864 171.642 860.642 175 856.5 175L777.5 175C773.358 175 770 171.642 770 167.5L770 166.5C770 162.358 773.358 159 777.5 159L809 159C812.785 159 815.869 155.995 815.996 152.241Z"   fill="url(#linear_fill_km9HhLcljUZRNJAUNJxoR)" ></path></g><path d="M847.453 857.746C847.815 859.812 848 861.898 848 864C848 915.915 735.176 958 596 958C471.347 958 367.833 924.24 347.587 879.894C180.198 867.129 62 835.721 62 799C62 750.951 264.367 712 514.517 712C645.621 712 763.778 722.788 846.303 740.013C927.064 740.66 992 765.031 992 795C992 819.23 949.553 839.8 890.611 847.132C877.644 850.885 863.205 854.433 847.453 857.746Z"   fill="url(#linear_fill_KCA-YdCO0LksvOS3iKBYI)" ></path><path d="M686.605 226.649L686.605 226.552C681.28 211.514 663.91 204.438 649.174 206.622C660.101 199.827 678.138 198.018 686.608 208.435L686.608 208.526C695.066 198.199 713.201 199.921 724.043 206.713C709.32 204.629 691.946 211.695 686.608 226.643L686.605 226.649Z"   fill="url(#linear_fill_UTspJcN8vLCDif25eL19H)" ></path><path d="M770.034 214.109L770.034 214.045C766.335 203.621 754.303 198.726 744.087 200.23C751.659 195.522 764.164 194.266 770.034 201.487L770.034 201.55C775.905 194.393 788.467 195.586 795.982 200.294C785.766 198.85 773.74 203.748 770.034 214.109Z"   fill="url(#linear_fill_xNvDZHKD3ha-n3CG9R6kK)" ></path><path d="M735.242 179.631L735.242 179.567C731.542 169.143 719.51 164.248 709.295 165.752C716.866 161.044 729.372 159.788 735.242 167.009L735.242 167.072C741.113 159.915 753.674 161.108 761.189 165.816C750.974 164.372 738.948 169.27 735.242 179.631Z"   fill="url(#linear_fill_R15cVVkqpCOMPVtb7YRqg)" ></path><path d="M840.723 220.069L840.723 220.025C838.161 212.801 829.815 209.404 822.736 210.449C827.986 207.185 836.654 206.314 840.723 211.32L840.723 211.364C844.795 206.401 853.501 207.229 858.71 210.492C851.631 209.487 843.286 212.888 840.723 220.069Z"   fill="url(#linear_fill_rg-W7C3ZW36nKVxFM0JZk)" ></path><path d="M40.7435 752.567C41.8537 766.711 52.851 782.733 80.4049 773.576C98.7741 767.471 111.386 777.699 118.24 804.258C138.955 831.701 175.332 842.664 227.37 837.146C279.408 831.629 276.097 807.63 217.437 765.152C201.486 758.853 189.309 754.963 180.905 753.481C172.501 751.999 168.379 742.829 168.54 725.969C168.572 715.42 160.933 707.715 145.624 702.856C130.315 697.997 123.912 690.285 126.417 679.72C116.268 664.765 104.157 662.63 90.0837 673.314C76.0105 683.998 64.0407 685.026 54.1741 676.398C21.4919 661.707 6.81041 668.92 10.1295 698.037C12.0271 707.068 15.4408 712.707 20.3707 714.955C33.2124 730.601 40.0034 743.138 40.7435 752.567Z"   fill="url(#linear_fill_Uyd1DTd8b0VHbdWVvXhZl)" ></path><path d="M182.66 778.292C182.452 778.046 182.32 777.881 182.32 777.881C182.32 777.881 184.226 763.603 182.541 756.409C184.214 758.436 185.327 773.358 184.843 779.75L215.39 800.14L211.52 804.01L179.982 781.678C171.46 786.712 159.772 787.472 154.122 786.945C164.568 785.988 172.2 783.591 177.019 779.752C177.869 780.43 178.701 780.962 179.516 781.349L90.6984 718.455C90.8962 718.676 91.0824 718.904 91.2569 719.141C78.0954 720.997 66.2825 720.202 55.8181 716.757C56.6577 715.092 70.569 721.593 88.9319 717.206L52.6386 691.506L100.91 723.725C98.4543 710.814 95.515 700.349 92.0918 692.331C87.0222 680.456 102.684 712.12 102.89 725.048L143.134 751.91C143.095 751.857 143.057 751.804 143.022 751.753C144.132 734.464 143.685 722.396 141.68 715.548C144.37 719.143 147.237 744.924 145.644 753.587L182.66 778.292Z"   fill="url(#linear_fill_1hPAuWOrJqZ5oBAH9XUsV)" ></path><path d="M93.9715 768.363C104.511 768.667 118.234 762.576 135.141 750.093C135.729 750.78 136.469 751.52 137.359 752.311C121.389 764.927 104.24 769.895 93.9715 768.363Z"   fill="url(#linear_fill_fMUpcWR_JdNiA6_7WHmn8)" ></path><path d="M89.5711 730.51C111.071 737.979 117.109 748.576 107.687 762.301C102.956 783.375 129.032 798.501 185.914 807.677C271.237 821.443 250.908 789.81 228.972 755.522C213.102 739.638 210.978 729.942 210.978 717.802C210.978 705.662 222.594 685.818 189.219 677.562C174.561 674.229 166.876 659.571 166.164 633.588C163.857 620.527 149.866 617.262 124.191 623.792C112.769 625.988 101.229 620.482 89.5711 607.277C57.4031 585.385 42.4757 590.891 44.7886 623.792C50.9772 647.361 55.0366 663.116 53.0069 677.562C50.9772 692.008 57.3218 719.307 89.5711 730.51Z"   fill="url(#linear_fill_bquTtbdRTLkHINXZeKINa)" ></path><path d="M176.633 728.401C177.521 734.045 177.581 741.619 172.736 749.078L212.002 799L205.775 799L167.817 748.447C149.435 756.293 139.12 753.011 134.014 750.703C143.978 753.144 154.55 751.464 165.728 745.662L136.863 707.218C137.017 707.514 137.182 707.82 137.359 708.134C118.152 714.863 98.2083 715.661 88.9978 710.869C98.8645 714.587 114.527 712.736 135.984 705.314L135.547 705.465L103.383 662.624C103.448 662.795 103.508 662.968 103.563 663.142C89.4326 664.012 78.1532 659.516 69.7243 649.653C71.0585 648.354 80.0723 661.46 101.865 660.605L74.9388 624.743L110.377 669.797L110.447 669.63C114.318 660.294 115.101 650.866 112.795 641.345L112.718 641.039L112.732 641.081C115.067 648.349 119.541 657.017 112.12 672.011L142.147 710.19L142.342 709.92C148.315 701.435 151.302 690.283 151.302 676.464C152.68 680.756 152.711 700.47 144.144 712.727L170.75 746.554C172.43 743.943 176.633 736.596 176.633 728.401Z"   fill="url(#linear_fill_80rmyqHpw5Z1IViCCB5-A)" ></path><path d="M205.565 814.976C199.201 798.971 211.928 776.925 205.565 765.985C199.201 755.046 162.099 751.279 172.011 718.469C180.261 705.045 191.746 701.165 180.215 678.308C168.685 655.451 165.758 664.634 180.215 642.118C186.528 635.648 192.857 624.526 199.201 608.752C211.62 591.492 222.737 593.244 232.553 614.007C237.311 631.948 229.797 643.354 254.373 651.509C270.757 656.946 273.236 668.329 261.811 685.658C257.039 696.562 260.565 703.531 272.388 706.567C284.212 709.602 282.79 721.675 268.122 742.786C263.037 754.359 263.037 762.092 268.122 765.985C275.748 771.825 290.403 789.337 272.388 823.377C254.373 857.417 211.928 830.98 205.565 814.976Z"   fill="url(#linear_fill_S1bpY48UMgsnVm1rCS-__)" ></path><path d="M237.384 745.208C237.394 745.143 237.404 745.079 237.416 745.018C250.426 733.578 258.643 724.728 262.067 718.468C261.427 722.913 245.225 743.17 237.973 748.169L246.678 791.813C246.705 791.492 246.728 791.281 246.728 791.281C246.728 791.281 258.172 782.533 262.067 776.254C261.817 778.871 252.053 790.209 247.191 794.387L254.373 830.405L248.9 830.405L242.39 792.312C232.805 789.846 224.003 782.119 220.381 777.752C228.443 784.461 235.535 788.162 241.657 788.856C241.779 789.936 241.991 790.901 242.294 791.75L223.963 684.474C223.947 684.77 223.916 685.064 223.872 685.355C213.254 677.36 205.463 668.445 200.499 658.609C202.27 658.026 207.51 672.46 223.597 682.342L216.106 638.507L227.456 695.422C234.85 684.555 240.172 675.077 243.421 666.987C248.232 655.006 236.917 688.47 227.921 697.757L237.384 745.208Z"   fill="url(#linear_fill_-knWsMmAOHHNaFCPkLkzI)" ></path><path d="M190.987 722.079C198.225 729.747 212.235 735.144 233.017 738.271C232.947 739.173 232.947 740.219 233.017 741.409C212.804 739.036 197.165 730.424 190.987 722.079Z"   fill="url(#linear_fill_geZx3BjjbTc_qhxGDFoDL)" ></path><path d="M938.396 787.516C941.302 765.313 933.837 753.352 916 751.632C940.142 749.325 956.124 764.017 956.382 787.516C951.377 787.691 945.382 787.691 938.396 787.516Z"   fill="url(#linear_fill___OO-FHKeGQ2ayyqGFUz2)" ></path><path d="M950.121 787.647C954.834 765.241 949.037 748.692 932.731 738C953.552 744.567 968.511 754.435 973.373 787.647C967.019 788.118 959.268 788.118 950.121 787.647Z"   fill="url(#linear_fill_rLJliAo9vP-JA4CBvWglB)" ></path><path d="M977.068 788C974.983 766.704 982.628 754.503 1000 751.395C983.886 750.987 965.911 749.906 953.052 788C963.95 787.65 971.955 787.65 977.068 788Z"   fill="url(#linear_fill_Be17NoJhWgxc4-MjOFk3p)" ></path><path d="M927.412 801.999C944.257 801.999 957 802.409 957 786.609C957 770.809 943.345 758 926.5 758C909.655 758 896 770.809 896 786.609C896 802.409 910.568 801.999 927.412 801.999Z"   fill="url(#linear_fill_oscVFb4GT6injks0rAJs8)" ></path><path d="M960.568 801.999C971.062 801.999 979 802.251 979 792.555C979 782.86 970.493 775 960 775C949.507 775 941 782.86 941 792.555C941 802.251 950.075 801.999 960.568 801.999Z"   fill="url(#linear_fill_vtzd5Q6WxFtY8r81aMgbV)" ></path><path     fill="url(#linear_fill_e8tIj8DOgOmv9-UutRN4a_0)"  d="M414.067 766.109C414.067 773.288 419.887 779.109 427.067 779.109L647.137 779.109C654.317 779.109 660.137 773.288 660.137 766.109L660.137 747.049C660.137 739.869 654.317 734.049 647.137 734.049L427.067 734.049C419.887 734.049 414.067 739.869 414.067 747.049L414.067 766.109"></path><path d="M574.198 670.326C574.463 671.018 574.611 671.745 574.628 672.486L587.948 739.946C588.414 742.283 587.6 744.686 585.808 746.256C584.015 747.827 581.523 748.326 579.268 747.556C577.013 746.787 575.336 744.865 574.878 742.526L570.978 722.776L541.928 700.746L512.138 723.206C511.771 723.479 511.338 723.583 510.938 723.776L507.238 742.526C506.524 746.136 503.018 748.48 499.408 747.766C495.798 747.052 493.448 743.547 494.158 739.936L528.238 567.386C528.952 563.777 532.448 561.433 536.058 562.146C538.442 562.64 540.361 564.4 541.048 566.736C541.735 564.4 543.663 562.64 546.048 562.146C549.658 561.433 553.154 563.777 553.868 567.386L574.198 670.326ZM553.437 633.971L528.667 633.971L541.057 571.271L553.437 633.971ZM526.041 647.301L556.081 647.301L560.561 670.011L541.961 684.031L521.811 668.741L526.041 647.301ZM518.929 683.29L530.889 692.37L514.729 704.56L518.929 683.29ZM563.422 684.536L567.092 703.096L552.992 692.396L563.422 684.536Z" fill-rule="evenodd"  fill="url(#linear_fill_LsUV1RDwOZ2QRXioK2WBY)" ></path><path d="M521.507 554.693C521.507 565.699 530.43 574.621 541.436 574.621C552.442 574.621 561.364 565.699 561.364 554.693C561.364 543.687 552.442 534.764 541.436 534.764C530.43 534.764 521.507 543.687 521.507 554.693Z"   fill="url(#linear_fill_hFRGuYZUasr47Xe5_vm3z)" ></path><path d="M721.113 556.476C721.113 605.087 701.796 650.669 668.057 684.315C663.314 689.046 655.633 689.035 650.902 684.292C646.172 679.548 646.182 671.867 650.926 667.137C680.145 637.997 696.852 598.575 696.852 556.476C696.852 478.329 639.494 413.578 564.58 402.027L570.029 390.067L561.843 377.173C651.529 387.701 721.113 463.963 721.113 556.476Z"   fill="url(#linear_fill_qS61d6HAduVEzBHmibZoV)" ></path><path d="M505.514 379.334L513.709 390.067L509.502 403.282C438.073 417.689 384.287 480.801 384.287 556.476C384.287 597.245 399.947 635.52 427.544 664.41C432.171 669.254 431.995 676.932 427.151 681.56C422.307 686.188 414.628 686.012 410.001 681.167C378.134 647.808 360.026 603.55 360.026 556.476C360.026 468.76 422.581 395.653 505.514 379.334Z"   fill="url(#linear_fill_bFaIFC1JpspgOTooCh_8R)" ></path><path d="M660.24 547.591C660.24 579.809 647.434 610.028 625.073 632.328C620.33 637.059 612.649 637.048 607.918 632.304C603.188 627.561 603.198 619.88 607.942 615.15C625.783 597.357 635.98 573.297 635.98 547.591C635.98 496.592 595.967 454.939 545.621 452.312L543.56 448.18L552.519 428.51C613.001 434.506 660.24 485.532 660.24 547.591Z"   fill="url(#linear_fill_XG1Yu5VawdLzC5lW-yrfw)" ></path><path d="M499.345 435.21L491.875 458.692L496.574 462.908C466.022 478.813 445.159 510.766 445.159 547.592C445.159 572.485 454.717 595.844 471.567 613.484C476.194 618.328 476.018 626.007 471.174 630.635C466.33 635.262 458.651 635.086 454.024 630.242C432.904 608.132 420.898 578.79 420.898 547.592C420.898 495.986 453.563 452.009 499.345 435.21Z"   fill="url(#linear_fill_Edh5syGBAg2Fpg6OxOq9m)" ></path><path d="M498.168 569.686C491.965 572.217 484.885 569.241 482.353 563.039C479.301 555.561 477.712 547.53 477.712 539.299C477.712 512.985 493.881 490.448 516.826 481.081L532.771 495.391L531.201 501.847C514.412 506.033 501.973 521.214 501.973 539.299C501.973 544.056 502.828 548.677 504.475 553.009L504.815 553.871C507.347 560.074 504.37 567.154 498.168 569.686Z"   fill="url(#linear_fill__IQ4-AiV-taDMAAG_q9G3)" ></path><path d="M556.527 504.145L567.09 495.391L559.019 479.193C584.731 487.076 603.426 511.004 603.426 539.299C603.426 547.208 601.959 554.934 599.135 562.164C596.697 568.404 589.662 571.486 583.422 569.049C577.315 566.663 574.232 559.873 576.389 553.735L576.537 553.336C578.267 548.909 579.166 544.176 579.166 539.299C579.166 523.673 569.881 510.217 556.527 504.145Z"   fill="url(#linear_fill_Pluh7ACjeG31NF-VYHaKl)" ></path><path d="M752.319 405.26C741.377 396.626 731.154 399.175 721.65 412.907C716.718 420.545 714.878 431.253 705.339 433.631C737.853 436.602 753.513 427.145 752.319 405.26Z"   fill="url(#linear_fill_PBfZE0tnEjf6cVgpFZLuc)" ></path><path d="M341.761 719.116C333.623 707.8 323.093 707.432 310.173 718.013C303.326 723.996 298.606 733.782 288.781 733.439C319.216 745.256 336.876 740.482 341.761 719.116Z"   fill="url(#linear_fill_k0UjB48k4OIfegx1KLgsA)" ></path><g opacity="0.4"><path d="M603.079 848.497C625.412 855.487 616.522 859.676 609.095 863.787C595.459 871.334 601.586 877.93 608.525 883.998C618.794 892.978 695.453 914.633 778.569 896.217C856.076 879.057 844.4 848.223 824.478 834.228C808.433 822.987 738.501 797.495 658.539 803.002C610.419 806.301 589.757 814.565 585.746 820.928C579.114 831.467 578.211 840.709 603.079 848.497Z"   fill="url(#linear_fill_yhsIDgFsIrzv2gslHE4Uq)" ></path></g><path d="M697.791 687.983C698.684 690.315 699.827 692.557 701.211 694.663C702.258 696.443 703.593 697.978 705.121 699.233L705.031 710.493L723.991 710.233L723.961 700.633C727.595 697.987 730.149 693.602 732.491 690.173C732.88 689.603 733.249 688.864 733.581 687.993C742.851 687.651 739.813 674.577 735.551 675.743L735.551 675.473C735.49 671.67 734.724 668.554 732.971 668.053L733.121 668.823L733.071 668.703C732.313 667.156 731.34 665.723 730.191 664.443C726.497 660.183 721.325 657.519 715.741 656.993C709.976 656.288 704.242 658.508 700.421 662.923C697.658 666.145 695.942 670.144 695.501 674.383C695.485 674.897 695.481 675.413 695.481 675.923C690.867 673.552 687.185 688.399 697.791 687.983ZM733.541 670.861L733.541 670.991L733.121 668.821L733.291 669.171L733.371 669.451C733.491 669.911 733.522 670.385 733.541 670.861ZM733.555 671.145C733.584 671.905 733.624 672.661 734.005 673.345L733.545 670.995L733.555 671.145Z" fill-rule="evenodd"  fill="#EBB0B0" ></path><path d="M693.254 682.446C696.784 680.211 697.645 675.051 700.142 671.698C703.604 667.628 707.966 664.419 712.885 662.324C723.465 660.771 728.534 660.771 733.298 670.354C733.298 670.354 734.1 672.774 735.705 677.614C742.229 671.293 744.602 650.176 732.254 644.836C730.873 643.148 727.938 642.7 723.992 642.643C721.128 642.568 720.806 643.664 719.342 643.406C717.878 643.148 715.723 639.675 710.154 638.988C707.141 638.558 698.042 640.827 696.061 643.406C692.18 646.323 687.134 653.421 686.006 662.324C684.845 671.244 689.433 675.671 693.254 682.446Z"   fill="#131322" ></path><path d="M680.15 821.979C678.512 820.338 670.356 802.377 668.502 797.429C666.649 792.48 663.827 783.539 663.612 778.18C663.042 763.926 662.084 739.776 661.885 721.892C673.625 704.625 692.762 706.066 705.468 702.504C708.468 704.375 711.995 707.523 715.376 707.589C717.932 707.737 721.42 704.047 723.649 702.504C733.907 702.989 752.504 708.244 768.249 720.318C768.249 767.006 763.612 775.326 757.596 801.606C757.432 802.756 740.401 832.676 737.139 834.359C724.363 840.898 714.486 839.675 700.491 838.016C697.763 837.68 682.196 824.006 680.15 821.979Z"   fill="url(#linear_fill_3LikukANvHrxSoGK4o8Mz)" ></path><path     fill="url(#linear_fill_0vzFU0yHm3_ugr-MsGOy0_0)"  d="M698.008 754.935C698.008 757.144 699.799 758.935 702.008 758.935L725.098 758.935C727.307 758.935 729.098 757.144 729.098 754.935L729.098 717.115C729.098 714.906 727.307 713.115 725.098 713.115L702.008 713.115C699.799 713.115 698.008 714.906 698.008 717.115L698.008 754.935"></path><path d="M688.43 753.837C690.477 747.68 693.166 742.773 696.497 739.117C699.848 737.083 699.809 738.578 698.387 740.12C700.351 739.564 709.119 736.518 711.355 750.041C709.806 755.076 704.101 763.923 695.506 764.858C690.535 764.671 688.177 760.998 688.43 753.837Z"   fill="#EFBA9E" ></path><path d="M658.689 722.333C665.923 713.543 672.915 712.715 679.663 719.849C687.322 727.222 684.121 774.802 679.663 804.204C669.261 816.937 656.256 809.255 652.764 798.731C645.187 766.299 647.162 740.833 658.689 722.333Z"   fill="url(#linear_fill_WadQlJ_M0IrcS07xbWnke)" ></path><path d="M660.722 793.666C663.786 779.526 672.673 766.635 687.383 754.994C692.701 753.008 698.731 754.906 700.157 762.16C701.671 766.566 693.911 801.79 675.912 810.843C662.955 813.496 657.892 807.77 660.722 793.666Z"   fill="url(#linear_fill_ffXiVbvRHV9lODaag_gyB)" ></path><path d="M740.124 753.837C738.078 747.68 735.388 742.773 732.057 739.117C728.707 737.083 728.746 738.578 730.168 740.12C728.204 739.564 719.435 736.518 717.2 750.041C718.749 755.076 724.454 763.923 733.049 764.858C738.02 764.671 740.378 760.998 740.124 753.837Z"   fill="#EFBA9E" ></path><path d="M769.866 722.333C762.631 713.543 755.64 712.715 748.892 719.849C741.232 727.222 744.433 774.802 748.892 804.204C759.293 816.937 772.299 809.255 775.79 798.731C783.367 766.299 781.393 740.833 769.866 722.333Z"   fill="url(#linear_fill_qXPdionduyXXy4v6trkkh)" ></path><path d="M767.832 793.666C764.769 779.526 755.882 766.635 741.171 754.994C735.854 753.008 729.823 754.906 728.398 762.16C726.884 766.566 734.644 801.79 752.642 810.843C765.599 813.496 770.662 807.77 767.832 793.666Z"   fill="url(#linear_fill_yPb4_DgUj9f_mTV4LD3bp)" ></path><path d="M796.567 818.138C801.989 835.116 783.872 838.682 783.872 838.682L770.173 841.21L764.208 860.207L715.762 851.256L667.277 860.207L661.304 841.194L647.751 838.691C647.751 838.691 629.654 835.126 635.071 818.156C641.215 798.922 662.369 807.743 662.369 807.743L715.739 821.991L769.238 807.719C769.238 807.719 790.418 798.895 796.567 818.138Z"   fill="url(#linear_fill_0pGJpHg5YPW-fMNh_i_mq)" ></path><path d="M636.969 864.217C635.316 862.765 634.439 859.547 634.439 859.547C634.439 859.547 632.991 851.765 635.769 847.937C637.214 845.948 644.169 846.207 644.169 846.207C644.169 846.207 647.64 846.212 651.379 846.367C653.192 846.464 655.006 846.464 656.819 846.367L662.659 845.987L666.929 858.497L659.929 860.397C659.929 860.397 657.083 860.863 650.429 862.277C645.52 863.322 640.919 864.527 640.919 864.527C640.919 864.527 638.363 865.446 636.969 864.217ZM794.664 864.307C793.26 865.541 790.684 864.617 790.684 864.617C790.684 864.617 786.054 863.406 781.114 862.357C774.424 860.938 771.564 860.457 771.564 860.457L764.524 858.557L768.824 845.987L774.694 846.367C776.517 846.464 778.341 846.464 780.164 846.367C783.923 846.211 787.414 846.207 787.414 846.207C787.414 846.207 794.409 845.949 795.864 847.947C798.657 851.792 797.194 859.607 797.194 859.607C797.194 859.607 796.322 862.848 794.664 864.307Z" fill-rule="evenodd"  fill="#333333" ></path></g><defs><clipPath id="clip-path-jGNd9m07PisWX9BS0SbiE"><path d="M0 1024L1024 1024L1024 0L0 0L0 1024Z" fill="white"/></clipPath><linearGradient id="linear_fill_qKHcReh0UgVewuO26iyQu" x1="53.15789794921875" y1="322" x2="132" y2="320.7135009765625" gradientUnits="userSpaceOnUse"><stop offset="0" stop-color="#98D6FA"  /><stop offset="1" stop-color="#47B0F1"  /></linearGradient><linearGradient id="linear_fill_km9HhLcljUZRNJAUNJxoR" x1="753.1578826904297" y1="152" x2="832" y2="150.7135009765625" gradientUnits="userSpaceOnUse"><stop offset="0" stop-color="#98D6FA"  /><stop offset="1" stop-color="#47B0F1"  /></linearGradient><linearGradient id="linear_fill_KCA-YdCO0LksvOS3iKBYI" x1="62" y1="704.3602294921875" x2="992" y2="704.3602294921875" gradientUnits="userSpaceOnUse"><stop offset="0" stop-color="#FFF5DE"  /><stop offset="1" stop-color="#FBD2AC"  /></linearGradient><linearGradient id="linear_fill_UTspJcN8vLCDif25eL19H" x1="639.0052185058594" y1="213.86181640625" x2="686.6084594726562" y2="213.2552490234375" gradientUnits="userSpaceOnUse"><stop offset="0" stop-color="#98D6FA"  /><stop offset="1" stop-color="#47B0F1"  /></linearGradient><linearGradient id="linear_fill_xNvDZHKD3ha-n3CG9R6kK" x1="737.038818359375" y1="205.246826171875" x2="770.0344543457031" y2="204.82666015625" gradientUnits="userSpaceOnUse"><stop offset="0" stop-color="#98D6FA"  /><stop offset="1" stop-color="#47B0F1"  /></linearGradient><linearGradient id="linear_fill_R15cVVkqpCOMPVtb7YRqg" x1="702.2464904785156" y1="170.768798828125" x2="735.2421264648438" y2="170.3486328125" gradientUnits="userSpaceOnUse"><stop offset="0" stop-color="#98D6FA"  /><stop offset="1" stop-color="#47B0F1"  /></linearGradient><linearGradient id="linear_fill_rg-W7C3ZW36nKVxFM0JZk" x1="817.8495788574219" y1="213.9261474609375" x2="840.7230377197266" y2="213.6348876953125" gradientUnits="userSpaceOnUse"><stop offset="0" stop-color="#98D6FA"  /><stop offset="1" stop-color="#47B0F1"  /></linearGradient><linearGradient id="linear_fill_Uyd1DTd8b0VHbdWVvXhZl" x1="-33.9892578125" y1="720.51953125" x2="138.96319580078125" y2="740.629638671875" gradientUnits="userSpaceOnUse"><stop offset="0" stop-color="#98D6FA"  /><stop offset="1" stop-color="#47B0F1"  /></linearGradient><linearGradient id="linear_fill_1hPAuWOrJqZ5oBAH9XUsV" x1="51.6298828125" y1="675.0064697265625" x2="67.87078857421875" y2="676.2742919921875" gradientUnits="userSpaceOnUse"><stop offset="0.0315726754" stop-color="#AFDEF9"  /><stop offset="1" stop-color="#7CC9F9"  /></linearGradient><linearGradient id="linear_fill_fMUpcWR_JdNiA6_7WHmn8" x1="105.91082763671875" y1="754.6600341796875" x2="111.90350341796875" y2="750.4310302734375" gradientUnits="userSpaceOnUse"><stop offset="0.0315726754" stop-color="#AFDEF9"  /><stop offset="1" stop-color="#7CC9F9"  /></linearGradient><linearGradient id="linear_fill_bquTtbdRTLkHINXZeKINa" x1="56.60821533203125" y1="726.106689453125" x2="166.63397216796875" y2="674.4976806640625" gradientUnits="userSpaceOnUse"><stop offset="0" stop-color="#98D6FA"  /><stop offset="1" stop-color="#47B0F1"  /></linearGradient><linearGradient id="linear_fill_80rmyqHpw5Z1IViCCB5-A" x1="74.99420166015625" y1="609.1605224609375" x2="90.04736328125" y2="617.3739013671875" gradientUnits="userSpaceOnUse"><stop offset="0.0315726754" stop-color="#AFDEF9"  /><stop offset="1" stop-color="#7CC9F9"  /></linearGradient><linearGradient id="linear_fill_S1bpY48UMgsnVm1rCS-__" x1="201.7706298828125" y1="808.375732421875" x2="225.669189453125" y2="671.0498046875" gradientUnits="userSpaceOnUse"><stop offset="0" stop-color="#98D6FA"  /><stop offset="1" stop-color="#47B0F1"  /></linearGradient><linearGradient id="linear_fill_-knWsMmAOHHNaFCPkLkzI" x1="227.05975341796875" y1="626.1260986328125" x2="237.64739990234375" y2="638.506591796875" gradientUnits="userSpaceOnUse"><stop offset="0.0315726754" stop-color="#AFDEF9"  /><stop offset="1" stop-color="#7CC9F9"  /></linearGradient><linearGradient id="linear_fill_geZx3BjjbTc_qhxGDFoDL" x1="209.11865234375" y1="720.8321533203125" x2="216.34649658203125" y2="722.0792236328125" gradientUnits="userSpaceOnUse"><stop offset="0.0315726754" stop-color="#AFDEF9"  /><stop offset="1" stop-color="#7CC9F9"  /></linearGradient><linearGradient id="linear_fill___OO-FHKeGQ2ayyqGFUz2" x1="948.3771934509277" y1="779.716796875" x2="932.2180404663086" y2="751.8310546875" gradientUnits="userSpaceOnUse"><stop offset="0" stop-color="#98D6FA"  /><stop offset="1" stop-color="#47B0F1"  /></linearGradient><linearGradient id="linear_fill_rLJliAo9vP-JA4CBvWglB" x1="939.625114440918" y1="776.8016357421875" x2="962.4446792602539" y2="751.6551513671875" gradientUnits="userSpaceOnUse"><stop offset="0" stop-color="#98D6FA"  /><stop offset="1" stop-color="#47B0F1"  /></linearGradient><linearGradient id="linear_fill_Be17NoJhWgxc4-MjOFk3p" x1="953.0519256591797" y1="775.8404541015625" x2="992.9472694396973" y2="764.5501708984375" gradientUnits="userSpaceOnUse"><stop offset="0" stop-color="#98D6FA"  /><stop offset="1" stop-color="#47B0F1"  /></linearGradient><linearGradient id="linear_fill_oscVFb4GT6injks0rAJs8" x1="896" y1="786.3192138671875" x2="947.8363342285156" y2="774.8056640625" gradientUnits="userSpaceOnUse"><stop offset="0" stop-color="#98D6FA"  /><stop offset="1" stop-color="#47B0F1"  /></linearGradient><linearGradient id="linear_fill_vtzd5Q6WxFtY8r81aMgbV" x1="941" y1="792.2625732421875" x2="973.2914886474609" y2="785.4072265625" gradientUnits="userSpaceOnUse"><stop offset="0" stop-color="#98D6FA"  /><stop offset="1" stop-color="#47B0F1"  /></linearGradient><linearGradient id="linear_fill_e8tIj8DOgOmv9-UutRN4a_0" x1="385.4078369140625" y1="755.8211669921875" x2="603.7072143554688" y2="757.3316650390625" gradientUnits="userSpaceOnUse"><stop offset="0" stop-color="#98D6FA"  /><stop offset="1" stop-color="#47B0F1"  /></linearGradient><linearGradient id="linear_fill_LsUV1RDwOZ2QRXioK2WBY" x1="529.0163879394531" y1="562.016357421875" x2="553.0914001464844" y2="668.6285400390625" gradientUnits="userSpaceOnUse"><stop offset="0" stop-color="#98D6FA"  /><stop offset="1" stop-color="#47B0F1"  /></linearGradient><linearGradient id="linear_fill_hFRGuYZUasr47Xe5_vm3z" x1="521.5072937011719" y1="534.764404296875" x2="561.3641357421875" y2="574.6212158203125" gradientUnits="userSpaceOnUse"><stop offset="0" stop-color="#98D6FA"  /><stop offset="1" stop-color="#47B0F1"  /></linearGradient><linearGradient id="linear_fill_qS61d6HAduVEzBHmibZoV" x1="544.730224609375" y1="459.4775390625" x2="662.6729125976562" y2="570.691162109375" gradientUnits="userSpaceOnUse"><stop offset="0" stop-color="#98D6FA"  /><stop offset="1" stop-color="#47B0F1"  /></linearGradient><linearGradient id="linear_fill_bFaIFC1JpspgOTooCh_8R" x1="343.51336669921875" y1="460.2877197265625" x2="457.3193359375" y2="569.6763916015625" gradientUnits="userSpaceOnUse"><stop offset="0" stop-color="#98D6FA"  /><stop offset="1" stop-color="#47B0F1"  /></linearGradient><linearGradient id="linear_fill_XG1Yu5VawdLzC5lW-yrfw" x1="531.0228271484375" y1="483.44189453125" x2="617.4275817871094" y2="557.66943359375" gradientUnits="userSpaceOnUse"><stop offset="0" stop-color="#98D6FA"  /><stop offset="1" stop-color="#47B0F1"  /></linearGradient><linearGradient id="linear_fill_Edh5syGBAg2Fpg6OxOq9m" x1="412.4693603515625" y1="487.87060546875" x2="470.56103515625" y2="559.028076171875" gradientUnits="userSpaceOnUse"><stop offset="0" stop-color="#98D6FA"  /><stop offset="1" stop-color="#47B0F1"  /></linearGradient><linearGradient id="linear_fill__IQ4-AiV-taDMAAG_q9G3" x1="471.7962646484375" y1="504.79248046875" x2="512.5687866210938" y2="536.8331298828125" gradientUnits="userSpaceOnUse"><stop offset="0" stop-color="#98D6FA"  /><stop offset="1" stop-color="#47B0F1"  /></linearGradient><linearGradient id="linear_fill_Pluh7ACjeG31NF-VYHaKl" x1="551.487548828125" y1="503.2181396484375" x2="586.2178344726562" y2="535.68212890625" gradientUnits="userSpaceOnUse"><stop offset="0" stop-color="#98D6FA"  /><stop offset="1" stop-color="#47B0F1"  /></linearGradient><linearGradient id="linear_fill_PBfZE0tnEjf6cVgpFZLuc" x1="676.3735046386719" y1="434.7000732421875" x2="728.0238647460938" y2="416.2169189453125" gradientUnits="userSpaceOnUse"><stop offset="0" stop-color="#98D6FA"  /><stop offset="1" stop-color="#47B0F1"  /></linearGradient><linearGradient id="linear_fill_k0UjB48k4OIfegx1KLgsA" x1="260.12933349609375" y1="728.40087890625" x2="315.27081298828125" y2="723.279296875" gradientUnits="userSpaceOnUse"><stop offset="0" stop-color="#98D6FA"  /><stop offset="1" stop-color="#47B0F1"  /></linearGradient><linearGradient id="linear_fill_yhsIDgFsIrzv2gslHE4Uq" x1="826.457763671875" y1="765.1209716796875" x2="577.2102661132812" y2="800.150390625" gradientUnits="userSpaceOnUse"><stop offset="0" stop-color="#F5DDA7"  /><stop offset="1" stop-color="#FA9A41"  /></linearGradient><linearGradient id="linear_fill_3LikukANvHrxSoGK4o8Mz" x1="676.7395629882812" y1="712.754638671875" x2="754.9742431640625" y2="849.5985107421875" gradientUnits="userSpaceOnUse"><stop offset="0" stop-color="#FFB859"  /><stop offset="1" stop-color="#F97B61"  /></linearGradient><linearGradient id="linear_fill_0vzFU0yHm3_ugr-MsGOy0_0" x1="698.6533813476562" y1="752.9805908203125" x2="713.5536499023438" y2="727.080810546875" gradientUnits="userSpaceOnUse"><stop offset="0" stop-color="#98D6FA"  /><stop offset="1" stop-color="#47B0F1"  /></linearGradient><linearGradient id="linear_fill_WadQlJ_M0IrcS07xbWnke" x1="684.2836608886719" y1="712.2098388671875" x2="648.4658508300781" y2="712.2098388671875" gradientUnits="userSpaceOnUse"><stop offset="0" stop-color="#F97B61"  /><stop offset="1" stop-color="#FFB859"  /></linearGradient><linearGradient id="linear_fill_ffXiVbvRHV9lODaag_gyB" x1="700.341796875" y1="752.5562744140625" x2="660.1961364746094" y2="752.5562744140625" gradientUnits="userSpaceOnUse"><stop offset="0" stop-color="#F97B61"  /><stop offset="1" stop-color="#FFB859"  /></linearGradient><linearGradient id="linear_fill_qXPdionduyXXy4v6trkkh" x1="744.2708740234375" y1="712.2098388671875" x2="780.0886840820312" y2="712.2098388671875" gradientUnits="userSpaceOnUse"><stop offset="0" stop-color="#FFB859"  /><stop offset="1" stop-color="#F97B61"  /></linearGradient><linearGradient id="linear_fill_yPb4_DgUj9f_mTV4LD3bp" x1="728.2127685546875" y1="752.5562744140625" x2="768.3584289550781" y2="752.5562744140625" gradientUnits="userSpaceOnUse"><stop offset="0" stop-color="#FFB859"  /><stop offset="1" stop-color="#F97B61"  /></linearGradient><linearGradient id="linear_fill_0pGJpHg5YPW-fMNh_i_mq" x1="775.1365661621094" y1="804.170654296875" x2="634.058837890625" y2="804.170654296875" gradientUnits="userSpaceOnUse"><stop offset="0" stop-color="#1D181C"  /><stop offset="0.3" stop-color="#2C2422"  /><stop offset="0.5" stop-color="#42352C"  /><stop offset="0.7" stop-color="#57352C"  /><stop offset="1" stop-color="#923629"  /></linearGradient></defs></svg>