<svg xmlns="http://www.w3.org/2000/svg" xmlns:xlink="http://www.w3.org/1999/xlink" width="1024" height="1024" viewBox="0 0 1024 1024" fill="none">
<g  clip-path="url(#clip-path-YGF3YlmkGT7Tb8w9kSDMd)">
<g opacity="0">
<path d="M0 0L0 1024L1024 1024L1024 0L0 0Z"   fill="#FFFFFF" >
</path>
</g>
<g opacity="0.05">
<path d="M160.398 303.513C301.619 273.879 385.048 308.393 447.098 248.052C509.149 187.71 524.624 197.614 575.59 201.605C626.557 205.596 685.626 162.039 705.475 148.955C725.324 135.872 904.534 51.6934 950.351 303.513C957.592 412.384 963.61 530.497 912.913 575.237C862.216 619.978 913.839 660.151 950.351 664.615C986.863 669.08 933.282 745.526 848.951 778.902C792.88 804.056 430.191 876.18 212.995 802.041C108.115 757.125 84.4698 614.862 76.7968 581.767C69.1238 548.672 19.1769 333.146 160.398 303.513Z"   fill="#47B0F1" >
</path>
</g>
<g opacity="0.100000001">
<path d="M70 337.5L70 336.5C70 332.358 73.3579 329 77.5 329L109 329C112.785 329 115.869 325.995 115.996 322.241L116 322C116 318.215 112.995 315.131 109.241 315.004L109 315L106 315L106 314.85C102.577 314.155 100 311.129 100 307.5L100 306.5C100 302.358 103.358 299 107.5 299L186.5 299C190.642 299 194 302.358 194 306.5L194 307.5C194 311.642 190.642 315 186.5 315L155 315C151.215 315 148.131 318.005 148.004 321.759L148 322C148 325.785 151.005 328.869 154.759 328.996L155 329L158 329L158.001 329.15C161.424 329.845 164 332.872 164 336.5L164 337.5C164 341.642 160.642 345 156.5 345L77.5 345C73.3579 345 70 341.642 70 337.5Z"   fill="url(#linear_fill_cdGczbTSJ4Y8C_hNYhdT3)" >
</path>
</g>
<g opacity="0.100000001">
<path d="M848.004 151.759L848 152C848 155.785 851.005 158.869 854.759 158.996L855 159L858 159L858.001 159.15C861.424 159.845 864 162.872 864 166.5L864 167.5C864 171.642 860.642 175 856.5 175L777.5 175C773.358 175 770 171.642 770 167.5L770 166.5C770 162.358 773.358 159 777.5 159L809 159C812.785 159 815.869 155.995 815.996 152.241L816 152C816 148.215 812.995 145.131 809.241 145.004L809 145L806 145L806 144.85C802.577 144.155 800 141.129 800 137.5L800 136.5C800 132.358 803.358 129 807.5 129L886.5 129C890.642 129 894 132.358 894 136.5L894 137.5C894 141.642 890.642 145 886.5 145L855 145C851.215 145 848.131 148.005 848.004 151.759Z"   fill="url(#linear_fill_9-CC74p8sRLo74xC4jSsy)" >
</path>
</g>
<path d="M848 864C848 915.915 735.176 958 596 958C471.347 958 367.833 924.24 347.587 879.894C180.198 867.129 62 835.721 62 799C62 750.951 264.367 712 514.517 712C645.621 712 763.778 722.788 846.303 740.013C927.064 740.66 992 765.031 992 795C992 819.23 949.553 839.8 890.611 847.132C877.644 850.885 863.205 854.433 847.453 857.746C847.815 859.812 848 861.898 848 864Z"   fill="url(#linear_fill_JdlT06nLKFFauXgImGnsC)" >
</path>
<path d="M686.605 226.65L686.605 226.552C681.28 211.515 663.91 204.438 649.174 206.623C660.101 199.827 678.138 198.018 686.608 208.435L686.608 208.526C695.066 198.199 713.201 199.921 724.043 206.713C709.32 204.629 691.946 211.695 686.608 226.643L686.605 226.65Z"   fill="url(#linear_fill_332F9c3n6Okpx3FmLLdS2)" >
</path>
<path d="M770.034 214.109L770.034 214.045C766.335 203.621 754.303 198.726 744.087 200.23C751.659 195.522 764.164 194.266 770.034 201.487L770.034 201.55C775.905 194.393 788.467 195.586 795.982 200.294C785.766 198.85 773.74 203.748 770.034 214.109Z"   fill="url(#linear_fill_q80lpjGOgQZbIj252UYdP)" >
</path>
<path d="M735.242 179.631L735.242 179.567C731.542 169.143 719.51 164.248 709.295 165.752C716.866 161.044 729.372 159.788 735.242 167.009L735.242 167.072C741.113 159.915 753.674 161.108 761.189 165.816C750.974 164.372 738.948 169.27 735.242 179.631Z"   fill="url(#linear_fill_5p4SnKDtAOBny3Ic9XXA3)" >
</path>
<path d="M840.723 220.069L840.723 220.025C838.161 212.801 829.815 209.404 822.736 210.449C827.986 207.185 836.654 206.314 840.723 211.32L840.723 211.364C844.795 206.401 853.501 207.229 858.71 210.492C851.631 209.487 843.286 212.888 840.723 220.069Z"   fill="url(#linear_fill__0QzBt31iGUuFMrQ5e0pm)" >
</path>
<path d="M168.54 725.969C168.572 715.42 160.933 707.715 145.624 702.856C130.315 697.997 123.912 690.285 126.417 679.72C116.268 664.765 104.157 662.63 90.0837 673.314C76.0106 683.998 64.0407 685.026 54.1742 676.398C21.492 661.707 6.81044 668.92 10.1296 698.037C12.0271 707.068 15.4408 712.707 20.3707 714.955C33.2125 730.601 40.0034 743.138 40.7435 752.567C41.8538 766.711 52.8511 782.733 80.4049 773.576C98.7742 767.471 111.386 777.699 118.24 804.258C138.955 831.701 175.332 842.664 227.37 837.146C279.408 831.629 276.097 807.63 217.437 765.152C201.486 758.853 189.309 754.963 180.905 753.481C172.501 751.999 168.379 742.829 168.54 725.969Z"   fill="url(#linear_fill_S6pjc1gbH1hd8iYYNFc01)" >
</path>
<path d="M154.122 786.945C164.568 785.988 172.2 783.591 177.019 779.752C177.869 780.43 178.701 780.962 179.516 781.349L90.6984 718.455C90.8962 718.676 91.0824 718.905 91.2569 719.141C78.0954 720.997 66.2824 720.202 55.8181 716.757C56.6576 715.092 70.569 721.593 88.9319 717.206L52.6386 691.507L100.91 723.726C98.4543 710.814 95.515 700.349 92.0918 692.331C87.0222 680.456 102.684 712.12 102.89 725.048L143.134 751.91C143.095 751.857 143.057 751.805 143.022 751.753C144.132 734.464 143.685 722.396 141.68 715.548C144.37 719.144 147.237 744.925 145.644 753.587L182.66 778.293C182.452 778.046 182.32 777.881 182.32 777.881C182.32 777.881 184.226 763.603 182.54 756.409C184.214 758.436 185.327 773.358 184.843 779.75L215.39 800.14L211.52 804.01L179.982 781.678C171.46 786.712 159.772 787.472 154.122 786.945Z"   fill="url(#linear_fill_LsyNzT2ZkuTay5Sz4mqBI)" >
</path>
<path d="M93.9715 768.363C104.511 768.667 118.234 762.576 135.141 750.093C135.729 750.78 136.469 751.52 137.359 752.311C121.389 764.927 104.24 769.895 93.9715 768.363Z"   fill="url(#linear_fill_iAManFSLcrrOgen19wcIU)" >
</path>
<path d="M53.0069 677.562C50.9772 692.008 57.3218 719.307 89.5711 730.51C111.071 737.979 117.109 748.576 107.687 762.301C102.956 783.375 129.032 798.501 185.914 807.677C271.237 821.443 250.908 789.81 228.972 755.522C213.102 739.638 210.978 729.942 210.978 717.802C210.978 705.662 222.594 685.818 189.219 677.562C174.561 674.229 166.876 659.571 166.164 633.588C163.857 620.527 149.866 617.262 124.191 623.792C112.769 625.988 101.229 620.482 89.5711 607.277C57.4032 585.385 42.4757 590.891 44.7887 623.792C50.9772 647.361 55.0366 663.116 53.0069 677.562Z"   fill="url(#linear_fill_2oZw3c7XYfw_6H59h7ple)" >
</path>
<path d="M142.147 710.19L142.342 709.92C148.315 701.435 151.302 690.283 151.302 676.464C152.68 680.756 152.711 700.47 144.144 712.727L170.75 746.554C172.431 743.944 176.633 736.596 176.633 728.401C177.521 734.045 177.581 741.619 172.736 749.078L212.002 799L205.775 799L167.817 748.447C149.435 756.293 139.12 753.011 134.014 750.703C143.978 753.144 154.55 751.464 165.728 745.662L136.863 707.218C137.017 707.514 137.183 707.82 137.359 708.134C118.152 714.863 98.2084 715.661 88.9978 710.869C98.8645 714.587 114.527 712.736 135.984 705.314L135.547 705.465L103.383 662.624C103.448 662.795 103.508 662.968 103.563 663.142C89.4326 664.012 78.1532 659.516 69.7244 649.653C71.0585 648.354 80.0723 661.46 101.865 660.605L74.9388 624.743L110.377 669.797L110.447 669.63C114.318 660.294 115.101 650.866 112.795 641.345L112.718 641.039L112.732 641.081C115.067 648.349 119.541 657.017 112.12 672.011L142.147 710.19Z"   fill="url(#linear_fill_v8lyNRqFxb8J2GUD16qUp)" >
</path>
<path d="M268.122 765.985C275.748 771.825 290.403 789.337 272.388 823.377C254.373 857.417 211.928 830.98 205.565 814.976C199.201 798.971 211.928 776.925 205.565 765.985C199.201 755.046 162.099 751.279 172.011 718.469C180.261 705.045 191.746 701.165 180.215 678.308C168.685 655.451 165.758 664.634 180.215 642.118C186.528 635.648 192.857 624.526 199.201 608.752C211.62 591.492 222.737 593.244 232.553 614.007C237.311 631.948 229.797 643.354 254.373 651.509C270.757 656.946 273.236 668.329 261.811 685.658C257.039 696.562 260.565 703.531 272.388 706.567C284.212 709.602 282.79 721.675 268.122 742.786C263.037 754.359 263.037 762.092 268.122 765.985Z"   fill="url(#linear_fill_xC0Wg3c4oml7zIFxjB-O7)" >
</path>
<path d="M246.678 791.813C246.705 791.492 246.728 791.281 246.728 791.281C246.728 791.281 258.172 782.533 262.067 776.254C261.817 778.871 252.053 790.209 247.191 794.387L254.373 830.405L248.9 830.405L242.39 792.312C232.805 789.846 224.003 782.119 220.381 777.752C228.443 784.461 235.535 788.162 241.657 788.856C241.779 789.936 241.991 790.901 242.294 791.75L223.963 684.474C223.947 684.77 223.916 685.064 223.872 685.355C213.254 677.36 205.463 668.445 200.499 658.609C202.27 658.026 207.51 672.46 223.597 682.342L216.106 638.507L227.456 695.422C234.85 684.555 240.172 675.077 243.421 666.987C248.232 655.006 236.917 688.47 227.921 697.757L237.384 745.208C237.394 745.143 237.404 745.079 237.416 745.018C250.426 733.578 258.643 724.728 262.067 718.468C261.427 722.913 245.225 743.17 237.973 748.169L246.678 791.813Z"   fill="url(#linear_fill_kOpbyoeYAj3bqHpqz53tH)" >
</path>
<path d="M190.987 722.079C198.225 729.746 212.235 735.144 233.017 738.271C232.947 739.173 232.947 740.219 233.017 741.409C212.804 739.036 197.165 730.424 190.987 722.079Z"   fill="url(#linear_fill_mZbsJU4oKhXe0onqq8Wiu)" >
</path>
<path d="M938.396 787.516C941.302 765.313 933.837 753.352 916 751.632C940.142 749.325 956.124 764.017 956.382 787.516C951.377 787.691 945.382 787.691 938.396 787.516Z"   fill="url(#linear_fill_-VZZgUybYHVH2Nk_ig2PL)" >
</path>
<path d="M950.121 787.647C954.834 765.241 949.037 748.692 932.731 738C953.552 744.567 968.511 754.435 973.373 787.647C967.019 788.118 959.268 788.118 950.121 787.647Z"   fill="url(#linear_fill_IzNp84k5p6V0m1BZFxyv_)" >
</path>
<path d="M977.068 788C974.983 766.704 982.628 754.503 1000 751.395C983.886 750.987 965.911 749.906 953.052 788C963.95 787.65 971.955 787.65 977.068 788Z"   fill="url(#linear_fill_uVThsvR-kJkQzg-qV6_v2)" >
</path>
<path d="M927.412 801.999C944.257 801.999 957 802.409 957 786.609C957 770.809 943.345 758 926.5 758C909.655 758 896 770.809 896 786.609C896 802.409 910.568 801.999 927.412 801.999Z"   fill="url(#linear_fill_cC4ldfGOqoEFonubTnO1c)" >
</path>
<path d="M960.568 801.999C971.062 801.999 979 802.251 979 792.555C979 782.86 970.493 775 960 775C949.507 775 941 782.86 941 792.555C941 802.251 950.075 801.999 960.568 801.999Z"   fill="url(#linear_fill_t3XLgxKXoytyn1ds6C3Is)" >
</path>
<path d="M411.024 379L431.81 379C434.848 379 437.31 381.462 437.31 384.5L437.31 744.334C437.31 747.372 434.848 749.834 431.81 749.834L411.024 749.834C407.987 749.834 405.524 747.372 405.524 744.334L405.524 384.5C405.524 381.462 407.987 379 411.024 379Z"   fill="url(#linear_fill_s6ix4ppTffqlFYo-N5i2I)" >
</path>
<path d="M241.766 408.474L590.751 437.188L636 513.592L584.985 583.296L236 554.581L236.687 484.877L241.766 408.474Z"   fill="url(#linear_fill_SUB_OW3RZ60XtRDrOkK7z)" >
</path>
<path d="M349.436 500.194L320.756 498.188L319.991 509.132L355.085 511.586L353.95 527.816L295.832 523.752L300.688 454.312L357.668 458.296L356.534 474.526L322.576 472.152L321.891 481.958L350.571 483.964L349.436 500.194ZM385.035 479.167L384.322 489.362C387.635 481.757 393.065 478.215 400.612 478.743C400.864 478.76 401.355 478.923 402.092 479.227L403.219 479.306L401.821 499.307L399.935 499.175C398.964 498.602 398.227 498.294 397.724 498.259C389.422 497.678 385.05 502.427 384.598 512.508L383.384 529.865L363.004 528.44L366.54 477.874L385.035 479.167ZM479.101 484.231C497.396 486.522 506.467 496.004 506.313 512.679C504.613 529.751 494.31 537.878 475.406 537.062C456.825 535.257 447.863 526.039 448.521 509.399C450.238 492.076 460.431 483.684 479.101 484.231ZM512.442 538.89L532.822 540.315L534.036 522.958C534.488 512.877 538.859 508.128 547.162 508.708C547.665 508.744 548.402 509.051 549.373 509.625L551.258 509.757L552.657 489.756L551.53 489.677C550.793 489.372 550.302 489.21 550.05 489.192C542.503 488.665 537.072 492.207 533.76 499.812L534.472 489.617L515.978 488.324L512.442 538.89ZM443.255 481.725C443.506 481.742 443.997 481.905 444.735 482.209L445.862 482.288L444.463 502.289L442.578 502.157C441.607 501.584 440.87 501.276 440.366 501.241C432.064 500.66 427.693 505.409 427.24 515.49L426.027 532.847L405.646 531.422L409.182 480.856L427.677 482.149L426.964 492.344C430.277 484.739 435.707 481.197 443.255 481.725ZM485.932 511.252C486.009 502.915 483.543 498.446 478.529 497.843C472.708 497.942 469.389 502.005 468.574 510.038C467.959 518.844 470.534 523.576 476.303 524.232C476.438 524.247 476.572 524.26 476.705 524.27C482.221 524.682 485.296 520.342 485.932 511.252Z" fill-rule="evenodd"  fill="#FFFFFF" >
</path>
<path d="M452.834 751.35C449.896 737.977 441.317 728.629 427.095 723.306C410.855 718.086 401.958 711.88 412.12 707.381C420.701 706.699 439.003 700.016 452.834 739.935C453.797 743.803 453.797 747.608 452.834 751.35Z"   fill="url(#linear_fill_4xuQcqXQiuWq74KaQXPsw)" >
</path>
<path d="M453.556 753.471C445.003 721.545 435.287 698.237 424.408 683.545C416.419 673.505 416.979 659.139 424.408 655.892C432.012 655.047 446.026 653.739 456.578 708.76C457.245 712.545 460.963 734.686 456.578 748.975C455.929 750.936 454.922 752.435 453.556 753.471Z"   fill="url(#linear_fill_-VnTlyl8JBjIZtHg0Lvbd)" >
</path>
<path d="M455.531 746.26C459.4 731.975 458.908 713.335 454.058 690.342C446.638 668.051 433.974 640.632 457.057 640C466.422 641.273 477.73 651.09 473.457 700.012C470.853 719.754 466.325 731.416 461.572 746.26C459.914 747.186 457.901 747.186 455.531 746.26Z"   fill="url(#linear_fill_33rT_pIHFhZksULuDc9_g)" >
</path>
<path d="M460.05 751.809C458.501 711.414 465.894 682.425 482.228 664.84C486.639 658.964 503.42 653.461 503.357 671.881C501.605 679.801 497.857 696.71 476.24 722.508C469.119 731.82 464.439 745.426 464.393 748.616C464.363 750.743 462.915 751.807 460.05 751.809Z"   fill="url(#linear_fill_dOGOawQ-fIhz0LfkZacaN)" >
</path>
<path d="M376 757.142C392.175 754.128 401.095 751.568 402.761 749.465C405.259 746.309 427.269 732.759 440.994 744.172C443.982 740.333 453.564 737.346 459.048 744.172C461.556 733.395 477.207 726.492 484.014 727.61C491.679 727.01 514.309 727.26 516 757.142C509.826 757.286 463.159 757.286 376 757.142Z"   fill="url(#linear_fill_OQy13fy3uyMpAWYPul6xb)" >
</path>
<g opacity="0.4">
<path d="M792.057 813.385C768.099 820.884 777.636 825.377 785.603 829.786C800.231 837.882 793.658 844.958 786.215 851.467C775.198 861.101 692.965 884.33 603.805 864.576C520.662 846.168 533.187 813.091 554.558 798.078C571.769 786.02 646.787 758.674 732.564 764.581C784.183 768.121 806.347 776.985 810.65 783.811C817.764 795.117 818.733 805.031 792.057 813.385Z"   fill="url(#linear_fill_ac8_f5fQlnJ2PAmlrZzd_)" >
</path>
</g>
<path d="M674.631 633.282C682.065 629.795 689.244 621.986 690.349 616.247C691.454 610.509 701.307 583.149 724.125 588.345C746.943 593.54 751.172 618.589 736.232 634.747C721.292 650.904 712.886 659.775 707.633 657.281C702.38 654.786 696.379 659.832 692.822 662.988C689.266 666.143 676.058 641.667 676.058 641.667L672.252 636.945L674.631 633.282Z"   fill="#EBB0B0" >
</path>
<path d="M700.584 635.717C698.497 633.068 684.253 622.246 686.596 617.178C688.939 612.109 687.655 603.581 696.68 591.77C705.705 579.959 727.524 577.151 737.261 580.074C746.998 582.996 753.454 586.339 757.581 589.868C774.116 604.007 760.993 617.685 750.786 622.797C740.58 627.909 742.118 624.99 732.725 624.81C732.725 624.81 732.732 622.441 723.406 632.836L719.512 631.751C718.101 631.287 721.59 629.624 720.828 627.042C720.066 624.46 711.947 624.423 710.829 631.02C709.711 637.617 710.641 636.146 710.641 636.146C710.641 636.146 702.671 638.366 700.584 635.717Z" fill-rule="evenodd"  fill="#131322" >
</path>
<path d="M798.022 795.772C794.648 801.502 791.624 803.531 791.753 807.415C791.881 811.299 797.946 818.585 802.821 819.059C809.002 819.66 819.733 820.012 822.75 820.175C825.766 820.338 846.535 820.933 850.424 815.556C854.313 810.179 846.546 803.007 833.725 800.413C820.904 797.819 802.162 795.631 802.162 795.631L798.022 795.772Z"   fill="#333333" >
</path>
<path d="M685.66 752.981C699.631 732.413 734.229 684.766 773.841 688.767C810.08 692.428 819.743 802.308 819.743 802.308L799.036 805.677L763.508 737.344L701.184 815.85L655.779 798.386L685.66 752.981Z"   fill="url(#linear_fill_pCPwTJB1PmP4FvdH3-S8q)" >
</path>
<path d="M579.582 751.734C570.705 782.803 568.714 831.292 599.725 838.114C616.796 841.87 638.989 839.48 696.348 839.821C753.028 840.159 789.897 842.894 789.556 811.825C789.214 780.755 720.589 788.608 705.908 787.242C691.227 785.876 623.284 785.193 623.284 785.193L579.582 751.734Z"   fill="url(#linear_fill_yI6eYcxGjrZfjRDUUMvur)" >
</path>
<path d="M702.495 661.075C702.495 661.075 698.732 657.408 690.483 649.974C674.786 638.47 680.826 629.038 680.826 629.038C680.826 629.038 626.252 625.78 594.816 681.033C575.883 714.312 573.878 771.319 573.878 771.319C573.878 771.319 592.328 792.932 671.538 785.762C671.538 785.762 695.324 740.467 707.615 718.617C715.808 704.049 714.102 684.868 702.495 661.075Z"   fill="url(#linear_fill_PbYzpHmnAXyHFtEYDmTGn)" >
</path>
<path d="M844.164 714.56L806.43 728.293L807.804 732.067L845.537 718.333L844.164 714.56Z"   fill="#000000" >
</path>
<path d="M816.223 725.727C816.124 726.967 815.472 727.962 814.267 728.713L819.421 727.615L824.297 725.186C829.479 722.751 832.028 723.667 831.946 727.932C830.904 732.718 825.796 737.998 815.684 737.644C813.287 736.853 810.02 737.036 805.883 738.193L799.864 732.049C802.517 730.682 805.311 729.289 808.248 727.87C809.064 726.968 810.238 726.099 811.768 725.262C814.836 724.333 816.321 724.488 816.223 725.727Z"   fill="#EFBA9E" >
</path>
<path d="M804.49 728.615L719.538 760.694L697.043 671.708C690.31 656.178 678.487 649.649 661.575 652.123C649.563 657.629 644.05 669.08 644.966 681.501C645.883 693.922 663.66 746.059 681.718 769.256C695.389 784.991 703.633 795.876 723.307 790.842C733.468 787.367 762.878 772.709 811.535 746.868L804.49 728.615Z"   fill="url(#linear_fill_ksc14Pi1GDxujntXGD_nc)" >
</path>
</g>
<defs>
<clipPath id="clip-path-YGF3YlmkGT7Tb8w9kSDMd">
<path d="M0 1024L1024 1024L1024 0L0 0L0 1024Z" fill="white"/>
</clipPath>
<linearGradient id="linear_fill_cdGczbTSJ4Y8C_hNYhdT3" x1="53.15788269042969" y1="322" x2="132" y2="320.71337890625" gradientUnits="userSpaceOnUse">
<stop offset="0" stop-color="#98D6FA"  />
<stop offset="1" stop-color="#47B0F1"  />
</linearGradient>
<linearGradient id="linear_fill_9-CC74p8sRLo74xC4jSsy" x1="753.1578979492188" y1="152" x2="832" y2="150.71337890625" gradientUnits="userSpaceOnUse">
<stop offset="0" stop-color="#98D6FA"  />
<stop offset="1" stop-color="#47B0F1"  />
</linearGradient>
<linearGradient id="linear_fill_JdlT06nLKFFauXgImGnsC" x1="62" y1="704.3603515625" x2="992" y2="704.3603515625" gradientUnits="userSpaceOnUse">
<stop offset="0" stop-color="#FFF5DE"  />
<stop offset="1" stop-color="#FBD2AC"  />
</linearGradient>
<linearGradient id="linear_fill_332F9c3n6Okpx3FmLLdS2" x1="639.0051879882812" y1="213.86181640625" x2="686.6084594726562" y2="213.25537109375" gradientUnits="userSpaceOnUse">
<stop offset="0" stop-color="#98D6FA"  />
<stop offset="1" stop-color="#47B0F1"  />
</linearGradient>
<linearGradient id="linear_fill_q80lpjGOgQZbIj252UYdP" x1="737.038818359375" y1="205.2470703125" x2="770.034423828125" y2="204.826904296875" gradientUnits="userSpaceOnUse">
<stop offset="0" stop-color="#98D6FA"  />
<stop offset="1" stop-color="#47B0F1"  />
</linearGradient>
<linearGradient id="linear_fill_5p4SnKDtAOBny3Ic9XXA3" x1="702.2464599609375" y1="170.76904296875" x2="735.2420654296875" y2="170.348876953125" gradientUnits="userSpaceOnUse">
<stop offset="0" stop-color="#98D6FA"  />
<stop offset="1" stop-color="#47B0F1"  />
</linearGradient>
<linearGradient id="linear_fill__0QzBt31iGUuFMrQ5e0pm" x1="817.849609375" y1="213.926025390625" x2="840.7230834960938" y2="213.635009765625" gradientUnits="userSpaceOnUse">
<stop offset="0" stop-color="#98D6FA"  />
<stop offset="1" stop-color="#47B0F1"  />
</linearGradient>
<linearGradient id="linear_fill_S6pjc1gbH1hd8iYYNFc01" x1="-33.989285469055176" y1="720.51953125" x2="138.96319580078125" y2="740.629638671875" gradientUnits="userSpaceOnUse">
<stop offset="0" stop-color="#98D6FA"  />
<stop offset="1" stop-color="#47B0F1"  />
</linearGradient>
<linearGradient id="linear_fill_LsyNzT2ZkuTay5Sz4mqBI" x1="51.629844665527344" y1="675.006591796875" x2="67.87078094482422" y2="676.2744140625" gradientUnits="userSpaceOnUse">
<stop offset="0.0315726754" stop-color="#AFDEF9"  />
<stop offset="1" stop-color="#7CC9F9"  />
</linearGradient>
<linearGradient id="linear_fill_iAManFSLcrrOgen19wcIU" x1="105.91084289550781" y1="754.66015625" x2="111.90348815917969" y2="750.43115234375" gradientUnits="userSpaceOnUse">
<stop offset="0.0315726754" stop-color="#AFDEF9"  />
<stop offset="1" stop-color="#7CC9F9"  />
</linearGradient>
<linearGradient id="linear_fill_2oZw3c7XYfw_6H59h7ple" x1="56.60823059082031" y1="726.106689453125" x2="166.63400268554688" y2="674.497802734375" gradientUnits="userSpaceOnUse">
<stop offset="0" stop-color="#98D6FA"  />
<stop offset="1" stop-color="#47B0F1"  />
</linearGradient>
<linearGradient id="linear_fill_v8lyNRqFxb8J2GUD16qUp" x1="74.99422454833984" y1="609.16064453125" x2="90.04740905761719" y2="617.3740234375" gradientUnits="userSpaceOnUse">
<stop offset="0.0315726754" stop-color="#AFDEF9"  />
<stop offset="1" stop-color="#7CC9F9"  />
</linearGradient>
<linearGradient id="linear_fill_xC0Wg3c4oml7zIFxjB-O7" x1="201.77064514160156" y1="808.375732421875" x2="225.6692352294922" y2="671.0498046875" gradientUnits="userSpaceOnUse">
<stop offset="0" stop-color="#98D6FA"  />
<stop offset="1" stop-color="#47B0F1"  />
</linearGradient>
<linearGradient id="linear_fill_kOpbyoeYAj3bqHpqz53tH" x1="227.05975341796875" y1="626.1259765625" x2="237.64739990234375" y2="638.506591796875" gradientUnits="userSpaceOnUse">
<stop offset="0.0315726754" stop-color="#AFDEF9"  />
<stop offset="1" stop-color="#7CC9F9"  />
</linearGradient>
<linearGradient id="linear_fill_mZbsJU4oKhXe0onqq8Wiu" x1="209.11863708496094" y1="720.83203125" x2="216.34645080566406" y2="722.0791015625" gradientUnits="userSpaceOnUse">
<stop offset="0.0315726754" stop-color="#AFDEF9"  />
<stop offset="1" stop-color="#7CC9F9"  />
</linearGradient>
<linearGradient id="linear_fill_-VZZgUybYHVH2Nk_ig2PL" x1="948.377197265625" y1="779.716796875" x2="932.218017578125" y2="751.8310546875" gradientUnits="userSpaceOnUse">
<stop offset="0" stop-color="#98D6FA"  />
<stop offset="1" stop-color="#47B0F1"  />
</linearGradient>
<linearGradient id="linear_fill_IzNp84k5p6V0m1BZFxyv_" x1="939.6251220703125" y1="776.8017578125" x2="962.4447021484375" y2="751.6552734375" gradientUnits="userSpaceOnUse">
<stop offset="0" stop-color="#98D6FA"  />
<stop offset="1" stop-color="#47B0F1"  />
</linearGradient>
<linearGradient id="linear_fill_uVThsvR-kJkQzg-qV6_v2" x1="953.0519409179688" y1="775.840576171875" x2="992.947265625" y2="764.550048828125" gradientUnits="userSpaceOnUse">
<stop offset="0" stop-color="#98D6FA"  />
<stop offset="1" stop-color="#47B0F1"  />
</linearGradient>
<linearGradient id="linear_fill_cC4ldfGOqoEFonubTnO1c" x1="896" y1="786.319091796875" x2="947.8363037109375" y2="774.8056640625" gradientUnits="userSpaceOnUse">
<stop offset="0" stop-color="#98D6FA"  />
<stop offset="1" stop-color="#47B0F1"  />
</linearGradient>
<linearGradient id="linear_fill_t3XLgxKXoytyn1ds6C3Is" x1="941" y1="792.2626953125" x2="973.29150390625" y2="785.4072265625" gradientUnits="userSpaceOnUse">
<stop offset="0" stop-color="#98D6FA"  />
<stop offset="1" stop-color="#47B0F1"  />
</linearGradient>
<linearGradient id="linear_fill_s6ix4ppTffqlFYo-N5i2I" x1="421.17413330078125" y1="701.657470703125" x2="421.4172058105469" y2="492.034423828125" gradientUnits="userSpaceOnUse">
<stop offset="0" stop-color="#98D6FA"  />
<stop offset="1" stop-color="#47B0F1"  />
</linearGradient>
<linearGradient id="linear_fill_SUB_OW3RZ60XtRDrOkK7z" x1="19.677871704101562" y1="508.2431640625" x2="436" y2="489.366455078125" gradientUnits="userSpaceOnUse">
<stop offset="0" stop-color="#98D6FA"  />
<stop offset="1" stop-color="#47B0F1"  />
</linearGradient>
<linearGradient id="linear_fill_4xuQcqXQiuWq74KaQXPsw" x1="418.0302734375" y1="702.55712890625" x2="430.6786804199219" y2="741.217041015625" gradientUnits="userSpaceOnUse">
<stop offset="0" stop-color="#98D6FA"  />
<stop offset="1" stop-color="#47B0F1"  />
</linearGradient>
<linearGradient id="linear_fill_-VnTlyl8JBjIZtHg0Lvbd" x1="436.7964172363281" y1="644.46240234375" x2="438.6540222167969" y2="732.502197265625" gradientUnits="userSpaceOnUse">
<stop offset="0" stop-color="#98D6FA"  />
<stop offset="1" stop-color="#47B0F1"  />
</linearGradient>
<linearGradient id="linear_fill_33rT_pIHFhZksULuDc9_g" x1="458.43035888671875" y1="627.7509765625" x2="459.1185607910156" y2="724.0244140625" gradientUnits="userSpaceOnUse">
<stop offset="0" stop-color="#98D6FA"  />
<stop offset="1" stop-color="#47B0F1"  />
</linearGradient>
<linearGradient id="linear_fill_dOGOawQ-fIhz0LfkZacaN" x1="478.9459228515625" y1="648.63916015625" x2="481.60296630859375" y2="731.962890625" gradientUnits="userSpaceOnUse">
<stop offset="0" stop-color="#98D6FA"  />
<stop offset="1" stop-color="#47B0F1"  />
</linearGradient>
<linearGradient id="linear_fill_OQy13fy3uyMpAWYPul6xb" x1="376" y1="750.582763671875" x2="534.5185546875" y2="750.582763671875" gradientUnits="userSpaceOnUse">
<stop offset="0" stop-color="#98D6FA"  />
<stop offset="1" stop-color="#47B0F1"  />
</linearGradient>
<linearGradient id="linear_fill_ac8_f5fQlnJ2PAmlrZzd_" x1="552.4340209960938" y1="723.946044921875" x2="819.806396484375" y2="761.522705078125" gradientUnits="userSpaceOnUse">
<stop offset="0" stop-color="#F5DDA7"  />
<stop offset="1" stop-color="#FA9A41"  />
</linearGradient>
<linearGradient id="linear_fill_pCPwTJB1PmP4FvdH3-S8q" x1="797.2388305664062" y1="684.95849609375" x2="655.7788696289062" y2="684.95849609375" gradientUnits="userSpaceOnUse">
<stop offset="0" stop-color="#1D181C"  />
<stop offset="0.3" stop-color="#2C2422"  />
<stop offset="0.5" stop-color="#42352C"  />
<stop offset="0.7" stop-color="#57352C"  />
<stop offset="1" stop-color="#923629"  />
</linearGradient>
<linearGradient id="linear_fill_yI6eYcxGjrZfjRDUUMvur" x1="759.9561157226562" y1="749.251220703125" x2="573.8775634765625" y2="749.251220703125" gradientUnits="userSpaceOnUse">
<stop offset="0" stop-color="#1D181C"  />
<stop offset="0.3" stop-color="#2C2422"  />
<stop offset="0.5" stop-color="#42352C"  />
<stop offset="0.7" stop-color="#57352C"  />
<stop offset="1" stop-color="#923629"  />
</linearGradient>
<linearGradient id="linear_fill_PbYzpHmnAXyHFtEYDmTGn" x1="712.7008056640625" y1="624.302490234375" x2="574.6847534179688" y2="624.302490234375" gradientUnits="userSpaceOnUse">
<stop offset="0" stop-color="#FFB859"  />
<stop offset="1" stop-color="#F97B61"  />
</linearGradient>
<linearGradient id="linear_fill_ksc14Pi1GDxujntXGD_nc" x1="811.5350341796875" y1="647.44140625" x2="645.83740234375" y2="647.44140625" gradientUnits="userSpaceOnUse">
<stop offset="0" stop-color="#FFB859"  />
<stop offset="1" stop-color="#F97B61"  />
</linearGradient>
</defs>
</svg>
