<svg xmlns="http://www.w3.org/2000/svg" width="256" height="256" fill="none"><path d="M30.292 40.494c5.474 1.625 5.474 1.625 8.212 4.172 2.979 5.532 2.79 10.692 2.727 16.819l.019 3.91c.01 2.795.01 5.592 0 8.388-.015 4.426.001 8.85.026 13.276.065 12.58.067 25.161.064 37.741 0 7.699.03 15.397.08 23.096.017 4.36-.002 8.719-.023 13.08.015 2.673.031 5.346.05 8.018l-.048 3.674c.078 5.657.42 8.636 3.954 13.151 3.584 2.686 5.403 4.03 9.88 4.166 5.997-2.874 5.997-2.874 9.732-8.125.163-3.532.22-7.068.23-10.604l.017-3.3c.012-2.369.02-4.738.026-7.107.012-3.758.037-7.515.067-11.273.085-10.687.163-21.373.188-32.06.017-6.536.065-13.072.132-19.608.02-2.483.029-4.967.025-7.45-.016-14.904.141-26.682 10.144-38.57 10.111-8.195 19.114-12.33 32.291-11.85 11.049 1.287 19.081 7.34 26.632 15.08 6.908 9.457 6.702 18.95 6.716 30.321.03 2.758.062 5.516.095 8.274.048 4.325.083 8.65.084 12.976.005 4.19.061 8.378.126 12.568l-.035 3.914c.14 6.364.544 9.315 4.931 14.058 4.224 2.793 4.224 2.793 9.373 2.384 5.591-1.948 6.73-2.952 9.53-8.125.452-4.791.639-9.252.602-14.04l.086-8.422c.016-4.404.022-8.807.019-13.21.006-4.265.051-8.53.098-12.795l-.04-3.936c.139-10.644 3.177-19.012 10.064-27.197 10.112-8.195 19.115-12.33 32.291-11.85 11.039 1.286 19.094 7.334 26.632 15.08 6.448 9.042 6.727 16.942 6.698 27.814l.01 4.014c.006 4.372.002 8.745-.003 13.117a13510.074 13510.074 0 0 1-.005 28.217c-.008 8.167-.003 16.334.006 24.501.007 6.274.004 12.548 0 18.823-.001 3.011 0 6.023.004 9.035.004 4.205-.002 8.41-.012 12.615l.012 3.783c-.022 5.13-.211 9.167-1.843 14.071-5.601 3.784-8.278 5.154-15.005 3.859-4.461-2.234-4.461-2.234-7.705-7.109-.312-4.275-.438-8.38-.414-12.655-.006-1.287-.013-2.575-.018-3.901-.011-2.795-.016-5.591-.013-8.386.002-4.426-.019-8.851-.047-13.277a7307.772 7307.772 0 0 1-.126-37.75c-.008-7.697-.047-15.393-.106-23.09-.016-2.932-.019-5.864-.011-8.796.011-4.104-.016-8.206-.053-12.31l.04-3.663c-.094-5.864-.757-9.223-3.861-14.254-3.317-3.757-3.317-3.757-8.47-3.893-4.854.465-4.854.465-9.631 2.235-2.05 6.16-1.904 11.98-1.964 18.4l-.14 8.217c-.066 4.303-.126 8.606-.17 12.91-.044 4.163-.119 8.325-.198 12.488l-.015 3.843c-.295 13.345-4.109 23.869-13.734 33.511-9.171 6.798-17.82 8.51-29.199 8.124-10.346-1.711-19.319-6.392-25.954-14.624-5.82-9.318-7.403-16.966-7.249-27.845l-.035-4.148c-.035-4.333-.031-8.664-.016-12.996.02-5.728-.003-11.454-.05-17.182l.055-3.95c-.057-6.386-.405-9.572-3.797-15.16-3.337-3.68-3.337-3.68-8.475-3.823-4.854.465-4.854.465-9.632 2.235-1.83 5.499-1.846 9.715-1.878 15.514l-.025 3.252c-.017 2.33-.03 4.66-.042 6.99-.02 3.697-.05 7.393-.086 11.09-.1 10.51-.188 21.021-.242 31.531-.034 6.433-.091 12.865-.163 19.297a1017.37 1017.37 0 0 0-.043 7.329c-.063 27.358-.063 27.358-8.248 38.574-9.91 9.379-19.158 14.645-33.07 14.287-11.911-2.014-20.167-6.237-28.117-15.524-8.992-13.158-7.12-28.958-7.025-44.222a7361.84 7361.84 0 0 0-.024-9.399c-.012-6.54.005-13.08.043-19.621.047-8.384.02-16.766-.029-25.15-.029-6.459-.02-12.916.001-19.375.006-3.092 0-6.184-.02-9.276-.02-4.314.011-8.625.056-12.938l-.05-3.865c.122-6.234.58-9.05 4.853-13.71 4.357-2.408 4.357-2.408 10.238-2.408z" fill="url(#a)"/><defs><linearGradient id="a" x1="15" y1="128" x2="242" y2="128" gradientUnits="userSpaceOnUse"><stop offset="0" stop-color="#F4D03F"/><stop offset="1" stop-color="#16A085"/></linearGradient></defs></svg>